<?xml version="1.0" encoding="utf-8"?>
<!-- Generator: Adobe Illustrator 23.0.2, SVG Export Plug-In . SVG Version: 6.00 Build 0)  -->
<svg version="1.1" id="图层_1" 
	xmlns="http://www.w3.org/2000/svg" 
	xmlns:xlink="http://www.w3.org/1999/xlink" x="0px" y="0px" viewBox="0 0 4700 3000" style="enable-background:new 0 0 4700 3000;" xml:space="preserve">
	<symbol xmlns="http://www.w3.org/2000/svg" 
		xmlns:xlink="http://www.w3.org/1999/xlink" class="icon" viewBox="0 0 4700 3000" id="stadium">
		<style type="text/css">
	.st0{clip-path:url(#SVGID_2_);}
	.st1{fill:none;stroke:#808080;stroke-width:6;stroke-linecap:round;stroke-linejoin:round;}
	.st10{font-size:150px;}
	.text{fill: blake;stroke:#999999;stroke-width:1;stroke-miterlimit:10;font-size: 52px; pointer-events: none;}
	.text1{fill: #FF8500;stroke-width:1;font-size: 52px; pointer-events: none;}
	.area{fill:#FFFFFF;stroke:#808080;stroke-width:6;stroke-linecap:round;stroke-linejoin:round;}
	.area1{fill:#FFFFFF;stroke:#808080;stroke-width:6;stroke-linecap:round;stroke-linejoin:round;}
		</style>
		<g>
			<g>
				<defs>
					<rect id="SVGID_1_" x="-422" y="-31" width="5443" height="3061"/>
				</defs>
				<clipPath id="SVGID_2_">
					<use xlink:href="#SVGID_1_" style="overflow:visible;"/>
				</clipPath>
				<g class="st0">
					<path class="st1" d="M1829.7,979.4"/>
					<path class="st1" d="M2299.4,979.4"/>
					<path class="st1" d="M1662.2,979.4"/>
					<path class="st1" d="M1558.5,1013.2"/>
					<path class="st1" d="M1662.2,979.4"/>
					<path class="st1" d="M1521,1040.4"/>
					<path class="st1" d="M1558.5,1013.2"/>
					<path class="st1" d="M1466.2,964.9"/>
					<path class="st1" d="M1521,1040.4"/>
					<path class="st1" d="M1466.2,964.9"/>
					<path class="st1" d="M1324.6,1884.6"/>
					<path class="st1" d="M1410.9,1840.7"/>
					<path class="st1" d="M1403.6,1988.8"/>
					<path class="st1" d="M1325.4,1881.1"/>
					<path class="st1" d="M1466.2,2034.2"/>
					<path class="st1" d="M1403.6,1988.8"/>
					<path class="st1" d="M1521,1958.8"/>
					<path class="st1" d="M1466.2,2034.2"/>
					<path class="st1" d="M1521,1958.8"/>
					<path class="st1" d="M1829.7,2019.7"/>
					<path class="st1" d="M1662.2,2019.7"/>
					<path class="st1" d="M2299.4,2019.7"/>
					<path class="st1" d="M1829.7,2019.7"/>
					<path class="st1" d="M1498.6,995.6"/>
					<path class="st1" d="M1656.8,945.2"/>
					<path class="st1" d="M3090.9,1017.7"/>
					<path class="st1" d="M1627.8,971.2"/>
					<path class="st1" d="M1629,978.8"/>
					<path class="st1" d="M1659.2,2038.1"/>
					<path class="st1" d="M1627.8,2028"/>
					<path class="st1" d="M1660.4,2030.5"/>
					<path class="st1" d="M1629,2020.3"/>
					<path class="st1" d="M1484.9,976.8"/>
					<path class="st1" d="M1471.2,958"/>
					<path class="st1" d="M1639.5,2162.3"/>
					<path class="st1" d="M1478.3,981.6"/>
					<path class="st1" d="M1519.2,1038"/>
					<path class="st1" d="M1557.2,1010.4"/>
					<path class="st1" d="M1661.7,976.4"/>
					<path class="st1" d="M1829.7,976.4"/>
					<path class="st1" d="M2299.5,976.4"/>
					<path class="st1" d="M1408.5,1841.9"/>
					<path class="st1" d="M1409.7,1841.3"/>
					<path class="st1" d="M1372.4,1730.3"/>
					<path class="st1" d="M1372.4,1675.8"/>
					<polyline class="area" id="101区" points="997,1684 1372,1684 1372.4,1499.5 1372,1315 997,1315.2 			" />
					<text transform="matrix(1 0 0 1 1150 1500)" class="text">101区</text>
					<text transform="matrix(1 0 0 1 1150 1560)" class="text1" id="101区-text">000</text>

					<path class="st1" d="M1372.4,1323.4"/>
					<line class="st1" x1="1410.9" y1="1158.5" x2="1406.1" y2="1165.2" />
					<path class="st1" d="M1197.5,813.5"/>
					<path class="st1" d="M1901.6,603.7"/>
					<path class="st1" d="M2084.6,603.7"/>
					<path class="st1" d="M2085.9,603.7"/>
					<path class="st1" d="M1900.1,627"/>
					<path class="st1" d="M1607.4,634.7"/>
					<path class="st1" d="M2258.8,2395.4h81.2"/>
					<path class="st1" d="M3104.7,998.9"/>
					<path class="st1" d="M2939.7,2038.1"/>
					<path class="st1" d="M2971,2028"/>
					<path class="st1" d="M2938.5,2030.5"/>
					<path class="st1" d="M2969.8,2020.3"/>
					<path class="st1" d="M3118.4,980"/>
					<path class="st1" d="M3337.8,1315.2"/>
					<path class="st1" d="M3337.8,1282.7"/>
					<path class="st1" d="M3132.4,2047.8"/>
					<path class="st1" d="M3158.8,2028.7"/>
					<path class="st1" d="M3314.6,1315.2"/>
					<path class="st1" d="M3338.9,1084.6"/>
					<path class="st1" d="M3250.5,962.9"/>
					<path class="st1" d="M3132,961.1"/>
					<path class="st1" d="M3077.2,1036.6"/>
					<path class="st1" d="M3041.6,1010.6"/>
					<path class="st1" d="M2937.2,976.8"/>
					<path class="st1" d="M2769.2,976.8"/>
					<path class="st1" d="M2299.5,976.8"/>
					<path class="st1" d="M3255.6,1866l40.4-124.9"/>
					<line class="st1" x1="3296.1" y1="1675.6" x2="3602" y2="1676"/>
					<path class="st1" d="M3296.1,1741.1"/>
					<path class="st1" d="M3233.8,979.6"/>
					<path class="st1" d="M3263.9,941.6"/>
					<path class="st1" d="M3337,1944"/>
					<path class="st1" d="M3330.2,1940.5"/>
					<path class="st1" d="M3351.2,1951.2"/>
					<path class="st1" d="M3398.4,1938.7"/>
					<path class="st1" d="M3419.4,1949.5"/>
					<path class="st1" d="M3412.6,1946"/>
					<path class="st1" d="M3330.6,874.9"/>
					<path class="st1" d="M3440.4,1960.2"/>
					<path class="st1" d="M3433.6,1956.7"/>
					<path class="st1" d="M3454.7,1031.8"/>
					<path class="st1" d="M2769.2,650.4"/>
					<path class="st1" d="M3463.2,990.8"/>
					<path class="st1" d="M2697.3,603.7"/>
					<path class="st1" d="M2514.3,603.7"/>
					<path class="st1" d="M2769.2,627"/>
					<path class="st1" d="M2698.7,627"/>
					<path class="st1" d="M3484.2,980.2"/>
					<path class="st1" d="M3484.2,2019"/>
					<path class="st1" d="M3477.4,983.6"/>
					<path class="st1" d="M2216.3,603.7h166.2"/>
					<path class="st1" d="M2513,611.3"/>
					<path class="st1" d="M2513,619"/>
					<path class="st1" d="M2480.4,619"/>
					<path class="st1" d="M3531.4,992.6"/>
					<path class="st1" d="M3454.7,1031.8"/>
					<path class="st1" d="M3512.1,966"/>
					<path class="st1" d="M3601.8,1315.2"/>
					<path class="st1" d="M3307,1315.2"/>
					<path class="st1" d="M3601.8,1274.5"/>
					<path class="st1" d="M3531.4,2006.5"/>
					<path class="st1" d="M3426.3,1953"/>
					<path class="st1" d="M3405.3,1942.3"/>
					<path class="st1" d="M3512.1,2033.2"/>
					<path class="st1" d="M3330.2,1940.5"/>
					<path class="st1" d="M3292.1,2267.5"/>
					<path class="st1" d="M3318.4,2248.4"/>
					<path class="st1" d="M3158.8,2028.7"/>
					<path class="st1" d="M2938.5,2030.5"/>
					<path class="st1" d="M2992.6,2372.2"/>
					<path class="st1" d="M2996.2,2395.4"/>
					<path class="st1" d="M2969.8,2020.3"/>
					<path class="st1" d="M3043.2,2380.2"/>
					<path class="st1" d="M2731.2,2395.4"/>
					<path class="st1" d="M2698.7,2395.4"/>
					<path class="st1" d="M997,1315.2"/>
					<path class="st1" d="M997,1274.5"/>
					<path class="st1" d="M997,1684"/>
					<path class="st1" d="M1015.3,1739"/>
					<path class="st1" d="M997,1724.5"/>
					<path class="st1" d="M1067.4,2006.5"/>
					<path class="st1" d="M1102.1,1988.9"/>
					<path class="st1" d="M1306.7,2267.5"/>
					<path class="st1" d="M1457.4,2060"/>
					<path class="st1" d="M1280.4,2248.4"/>
					<path class="st1" d="M1431.2,2041"/>
					<path class="st1" d="M1602.6,2395.4"/>
					<path class="st1" d="M1629,2020.3"/>
					<path class="st1" d="M3292.1,731.6"/>
					<path class="st1" d="M3132.4,951.4"/>
					<path class="st1" d="M3318.4,750.7"/>
					<path class="st1" d="M3304.7,769.6"/>
					<path class="st1" d="M2996.2,603.7"/>
					<path class="st1" d="M3043.2,619"/>
					<path class="st1" d="M2480.4,603.7"/>
					<path class="st1" d="M2513,603.7"/>
					<path class="st1" d="M1280.4,750.7"/>
					<path class="st1" d="M1606.2,627"/>
					<path class="st1" d="M1602.6,603.7"/>
					<path class="st1" d="M1629,978.8"/>
					<path class="st1" d="M1574.9,637.2"/>
					<path class="st1" d="M1555.6,619"/>
					<path class="st1" d="M999.4,1323.4"/>
					<path class="st1" d="M999.4,1499.5"/>
					<path class="st1" d="M2299.5,576.4"/>
					<path class="st1" d="M2769.2,576.4"/>
					<path class="st1" d="M3000.5,576.4"/>
					<path class="st1" d="M3517.7,938.8"/>
					<path class="st1" d="M3560.6,1037.4"/>
					<path class="st1" d="M3512.3,942.7"/>
					<path class="st1" d="M3363.8,766.7"/>
					<path class="st1" d="M3599.4,1499.5v-176.2v-113.6l-70.2-216l-133.6-183.8L3212,676.3l-216.1-70.2h-226.7h-469.7" />
					<path class="st1" d="M3237.5,626.3"/>
					<path class="st1" d="M3435.5,770.2"/>
					<path class="st1" d="M3383,740.3"/>
					<path class="st1" d="M3379,745.8"/>
					<path class="st1" d="M3674,1285.4"/>
					<path class="st1" d="M995.3,1499.5"/>
					<path class="st1" d="M3072.8,2385.1"/>
					<path class="st1" d="M2996.4,2397h-227.3h-469.7"/>
					<path class="st1" d="M3603.5,1499.5v176.3V1790l-70.6,217.3l-134.3,184.8l-184.9,134.3" />
					<path class="st1" d="M3453.3,2137.6"/>
					<path class="st1" d="M3363.8,2232.5"/>
					<path class="st1" d="M3560.6,1037.4"/>
					<path class="st1" d="M3512.3,942.7"/>
					<path class="st1" d="M3574.1,935.6"/>
					<path class="st1" d="M3363.8,766.7"/>
					<path class="st1" d="M3386.9,734.9"/>
					<path class="st1" d="M3145,637.6"/>

					<path class="st1" d="M995.3,1323.4"/>
					<path class="st1" d="M995.3,1499.5"/>

					<path class="st1" d="M999.4,1323.4"/>
					<path class="st1" d="M1095.4,2080.2"/>
					<path class="st1" d="M1154.3,2161.3"/>
					<path class="st1" d="M1007.3,1866.4"/>
					<path class="st1" d="M995.3,1499.5"/>
					<path class="st1" d="M1074.5,2095.3"/>
					<path class="st1" d="M1007.3,1866.4"/>
					<path class="st1" d="M1100.9,2076.2"/>
					<path class="st1" d="M3718.7,2246.6"/>
					<path class="st1" d="M3606.9,2400.5"/>
					<path class="st1" d="M3401.4,2644.1"/>
					<path class="st1" d="M3249.8,2741.9"/>
					<path class="st1" d="M3060.9,2803.2"/>
					<path class="st1" d="M2299.5,2803.2"/>
					<path class="st1" d="M2299.5,2476.6H3009l241.3-78.4l205.2-149.2l92-126.7"/>
					<path class="st1" d="M3149.3,2445.2"/>
					<path class="st1" d="M3118.5,2455.3"/>
					<path class="st1" d="M3347.8,2344.2"/>
					<path class="st1" d="M3718.7,752.5"/>
					<path class="st1" d="M3606.9,598.7"/>
					<path class="st1" d="M3249.8,257.3"/>
					<path class="st1" d="M2299.4,196"/>
					<path class="st1" d="M3547.6,876.8"/>
					<path class="st1" d="M3455.6,750.1"/>
					<path class="st1" d="M3588.2,847.3"/>
					<path class="st1" d="M3273.4,555.7"/>
					<path class="st1" d="M3569.6,860.9"/>
					<path class="st1" d="M3149.3,553.9"/>
					<path class="st1" d="M3118.5,543.8"/>
					<path class="st1" d="M3374.1,674.2"/>
					<path class="st1" d="M3347.8,655"/>
					<path class="st1" d="M3531.5,831.6"/>
					<path class="st1" d="M3583,794.2"/>
					<path class="st1" d="M3677.1,782.8"/>
					<path class="st1" d="M3374.1,674.2"/>
					<path class="st1" d="M915.8,1802.6"/>
					<path class="st1" d="M1041.8,2194.6"/>
					<path class="st1" d="M1045.7,2200.1"/>
					<path class="st1" d="M816.9,1062.4"/>
					<path class="st1" d="M823.4,1064.5"/>
					<path class="st1" d="M794.9,1055.3"/>
					<path class="st1" d="M801.4,1057.3"/>
					<path class="st1" d="M902.1,1001.8"/>
					<path class="st1" d="M788.6,1053.1"/>
					<path class="st1" d="M898.1,1088.8"/>
					<path class="st1" d="M611.2,1002.5"/>
					<path class="st1" d="M1067.3,831.6"/>
					<path class="st1" d="M1260.3,603.1"/>
					<path class="st1" d="M1265.8,599"/>
					<path class="st1" d="M1271.2,595.1"/>
					<path class="st1" d="M1494.6,2000.6"/>
					<path class="st1" d="M1481,2019.5"/>
					<path class="st1" d="M3547.6,2122.3"/>
					<path class="st1" d="M3728.3,2253.6"/>
					<path class="st1" d="M3510.5,2553.4"/>
					<path class="st1" d="M3587.2,2153.2"/>
					<path class="st1" d="M3676.1,2217.7"/>
					<path class="st1" d="M3587.2,846"/>
					<path class="st1" d="M3676.1,781.4"/>
					<path class="st1" d="M1198.4,812.4"/>
					<path class="st1" d="M1198.6,2187.1"/>
					<polyline class="area" id="106区" points="2216.3,603.7 2083.2,603.7 2087.2,979 1900,976.4 1900,604 			"/>
					<text transform="matrix(1 0 0 1 1950 790)" class="text">106区</text>
					<text transform="matrix(1 0 0 1 1950 850)" class="text1" id="106区-text">000</text>

					<polyline class="area" id="105区" points="1865,603.7 1865,979 1660,976.4 1600,604 			" />
					<text transform="matrix(1 0 0 1 1700 790)" class="text">105区</text>
					<text transform="matrix(1 0 0 1 1700 850)" class="text1" id="105区-text">000</text>

					<path id="disabled_4_" class="st1" d="M997,1323.4"/>
					<path class="st1" d="M1093.6,2029.7"/>
					<path class="st1" d="M1100.4,2026.2"/>
					<path class="st1" d="M1004.6,1724.5"/>
					<path class="st1" d="M1004.6,1684"/>
					<path class="st1" d="M1004.6,1315.2"/>
					<path class="st1" d="M3400.7,2186.5"/>
					<path class="st1" d="M3402.3,814.9"/>
					<path class="st1" d="M3510.5,2035.4l1.6-2.3"/>
					<path class="st1" d="M3470.9,2015.3"/>
					<path class="st1" d="M3213,2325l184.4-134l4.8-6.6"/>
					<path class="st1" d="M2340,2395.4h429.1h227"/>
					<path class="st1" d="M3314,2242.3"/>
					<path class="st1" d="M3041.6,1988.5l35.6-25.9l54.8,68.4l155.7,230.4" />
					<path class="st1" d="M3330.2,1940.5"/>
					<polyline class="st1" points="3318.4,750.7 3157.3,979.4 3207,1026 3250,963 3318.4,1056.3 3512.1,966 3531.4,992.6 
				3601.8,1209.4 3601.8,1323.4 3601.8,1499.5 3601.8,1675.8 3601.8,1789.8 3531.4,2006.5 3512.1,2033.2 3330,1941 3250.5,2036.4 
				3200.4,1986.2 3157.3,2019.7 3207.9,2091.6 3318.4,2248.4 			" />
					<path class="st1" d="M3594.3,1684"/>
					<path class="st1" d="M3594.3,1724.5"/>
					<path class="st1" d="M3594.3,1274.5"/>
					<path class="st1" d="M3505.2,969.5"/>
					<path class="st1" d="M3287.7,737.8"/>
					<path class="st1" d="M3250.4,2395.3l-35.5-69.7l-172.8,46.9l-72-352.5" />
					<path class="st1" d="M3680.8,1501h-77.3"/>
					<path class="st1" d="M3680.8,1498.2h-77.3"/>
					<path class="st1" d="M3680.3,1803.6l-77.3-12.2"/>
					<path class="st1" d="M3680.8,1800.8l-77.3-12.2"/>
					<path class="st1" d="M3601.8,2044l-69.7-35.5"/>
					<path class="st1" d="M3603,2041.6l-69.7-35.5l-194.3-91" />
					<path class="st1" d="M3452.8,2248.3l-55.3-55.3"/>
					<path class="st1" d="M3454.7,2246.4l-55.3-55.3"/>
					<path class="st1" d="M2997.8,2396.6"/>
					<path class="st1" d="M3010,2473.9"/>
					<polyline class="st1" points="2995.4,2397 2937,2021 2731,2031 2731,2395 			" />
					<polygon class="st1" points="3007.4,2474.3 3248,2396.5 3214.8,2325.6 3042,2372.5 2995.4,2397 			" />
					<path class="st1" d="M2937.2,2022.4" />
					<path class="st1" d="M2769.2,2022.4"/>
					<path class="st1" d="M2767.8,2474.3V2397"/>
					<path class="st1" d="M2897.9,2474.3V2397"/>
					<path class="st1" d="M2900.7,2474.3V2397"/>
					<path class="st1" d="M2770.5,2474.3V2397"/>
					<path class="st1" d="M2457.4,2474.3V2397"/>
					<path class="st1" d="M2613.9,2474.3V2397"/>
					<path class="st1" d="M2611.2,2474.3V2397V2474.3z" />

					<path class="st1" d="M2144.2,2397"/>
					<path class="st1" d="M2144.2,2474.3"/>
					<path class="st1" d="M2300.8,2397"/>
					<path class="st1" d="M2300.8,2474.3"/>
					<path class="st1" d="M2298,2474.3"/>
					<path class="st1" d="M2141.4,2474.3"/>
					<path class="st1" d="M1985,2397"/>
					<path class="st1" d="M1985,2474.3"/>
					<path class="st1" d="M1828.4,2397"/>
					<path class="st1" d="M1828.4,2474.3"/>
					<path class="st1" d="M1831,2397"/>
					<path class="st1" d="M1831,2474.3"/>
					<path class="area" id="321区" d="M1601.1,2396.6l-12.2,77.3l-99.8-32.5l-32.3,88.6l28.2,10.3l-25.5,69.5l-28.2-10.3l-64.2,174.6l20,8.2
				c88,35.9,183.3,50,277.9,41.1l0,0v-186h-29v-74h29l-0.1-85.5" />

					<polyline class="area" id="121区" points="1858.4,2019.7 1662.2,2019.7 1603.7,2397 1860.4,2398.4 1858.4,2019.7 			" />
					<text transform="matrix(1 0 0 1 1700 2184)" class="text">121区</text>
					<text transform="matrix(1 0 0 1 1700 2244)" class="text1" id="121区-text">000</text>

					<polyline class="area" id="122区" points="1564.6,2382 1627.6,2002 1520.6,1960.4 1303.7,2267 1380.7,2320 			" />
					<text transform="matrix(1 0 0 1 1440 2174)" class="text">122区</text>
					<text transform="matrix(1 0 0 1 1440 2234)" class="text1" id="122区-text">000</text>

					<polyline class="area" id="123区" points="1285.6,2250 1444.6,2020 1394.6,1988 1337.7,1902.4 1090.7,2034 1201.5,2190.3 			"/>
					<text transform="matrix(1 0 0 1 1230 2040)" class="text">123区</text>
					<text transform="matrix(1 0 0 1 1230 2100)" class="text1" id="123区-text">000</text>

					<polyline class="area" id="124区" points="1066.7,2002 1410.6,1840 1375.6,1723 997,1721 995,1784 			" />
					<text transform="matrix(1 0 0 1 1150 1820)" class="text">124区</text>
					<text transform="matrix(1 0 0 1 1150 1880)" class="text1" id="124区-text">000</text>

					<path class="st1" d="M1557.3,1988.5"/>
					<path class="st1" d="M1471.1,2435.6l23.9-73.4"/>
					<polyline class="area1" id="包厢V11" points="1348.5,2395.3 1468.5,2434.8 1492.4,2361.4 1384,2325.6 1348.5,2395.3 			" />
					<!-- <text transform="matrix(1 0 0 1 1378 2400)" class="text">V11</text> -->

					<path class="st1" d="M1350.9,2396.5l35.5-69.6"/>
					<polyline class="st1" points="1246.1,2321 1291.5,2258.5 1248.3,2322.6 1144.1,2246.4 			" />
					<path class="area" id="322区" d="M1265.8,2335.3l-56.5,76.6l23.6,18.5l-45.6,58.3l-23.6-18.5l-110.1,141.7l0,0
				c57.2,77.5,143.1,128.8,238.4,142.4l34.9,5l64-174.6l-27.2-10l25.5-69.5l27.2,10l36.4-85.6,-97.3-30.6" />


					<polyline class="st1" points="1248.3,2322.6 1348.5,2395.3 1384,2325.6 1348.5,2395.3 			" />
					<path class="st1" d="M1146,2248.3l55.3-55.3" />
					<path class="st1" d="M1248.3,2322.6"/>
					<path class="st1" d="M1069.7,2144l62.5-45.4" />
					<path class="area" id="323区" d="M1083.4,2162.8l-78.5,51l16.9,24.8l-61.1,41.8l-16.9-24.8l-153.7,104.9l2.9,4
				c61,84.5,134.7,159.1,218.5,221.1l0,0l118.4-141.9l-22.8-17.9l45.6-58.3l22.8,17.9l56.3-74.9,-96.3-74.9" />


					<polyline class="st1" points="1071.4,2146.2 1144.1,2246.4 1199.4,2191.1 1144.1,2246.4 			" />
					<polyline class="area1" id="包厢V16" points="995.8,2041.6 1071.4,2146.2 1133.9,2100.8 1065.5,2006 995.8,2041.6 			" />
					<!-- <text style="font-size: 45px" transform="matrix(1 0 0 1 1020.8,2088.6)" class="text">V16</text> -->


					<path class="st1" d="M997,2044l69.7-35.5"/>
					<polyline class="area" id="324区" points="995.8,2041.6 961.2,1941.5 885.8,1982 900,2008.5 834.8,2043.4 
				820.6,2017 645.9,2103.5 703.2,2209.2 766,2325 919.6,2220.1 903.2,2196.1 964.3,2154.4 980.6,2178.3 1055.2,2130 			" />


					<path class="st1" d="M918.5,1803.6l77.3-12.2"/>
					<path class="st1" d="M956.7,1921.2l73.6-23.9"/>
					<polyline class="area1" id="包厢V18" points="918,1800.8 957.5,1923.8 1031.1,1900 995.3,1788.6 918,1800.8 			" />
					<!-- <text style="font-size: 45px" transform="matrix(1 0 0 1 932,1865.8)" class="text">V18</text> -->

					<polyline class="area" id="325区" points="909.4,1674.5 918,1800.8 995.3,1788.6 918,1800.8 907.8,1650.6 822.3,1650.7 822.3,1680.7 
				748.3,1680.7 748.3,1650.7 566.1,1650.6 601.2,1858.7 636.4,2066.9 800.3,1979.1 786.6,1953.5 851.9,1918.6 865.6,1944.1 
				951.6,1905.3, 918.6,1800.3			" />
					<path class="st1" d="M995.3,1677.1"/>
					<path class="st1" d="M995.3,1501"/>
					<path class="st1" d="M995.3,1674.5"/>
					<path class="st1" d="M918,1674.5"/>
					<path class="st1" d="M995.3,1501"/>
					<polygon class="area" id="301区" points="907.8,1398.6 822.3,1398.7 822.3,1428.7 748.3,1428.7 748.3,1398.7 566.1,1398.6 566.1,1499.5 
				566.1,1607.7 748.3,1607.7 748.3,1578.7 822.3,1578.7 822.3,1607.7 907.8,1607.7 907.8,1503 			" />
					<path class="st1" d="M3680.8,1198.3l-77.3,12.2"/>
					<path class="st1" d="M3680.3,1195.6"/>
					<path class="st1" d="M3601.8,955.2l-69.7,35.5"/>
					<polyline class="st1" points="3258,1867.2 3254.8,1871.6 3338.9,1914.6 			"/>
					<polyline class="st1" points="3296,1741 3298.8,1718.2 3602.8,1718.2 			"/>
					<polyline class="st1" points="3601.8,1315.2 3298.8,1305.6 3298.8,1323.6 3298.8,1499.5 3298.8,1675.6 			"/>
					<path class="st1" d="M3603,957.6l-69.7,35.5L3335,1084l-80.2,43.4l3.2,4.4l40.8,125.8v16.9h303" />
					<path class="st1" d="M3452.8,750.8l151.9,204.5l-146.3-208.2l-56.2,67.8" />
					<path class="st1" d="M3248,602.6l-35.5,69.6"/>
					<path class="st1" d="M3007.4,524.9l-12.2,77.3" />
					<polyline class="st1" points="3250.4,603.8 3214.8,673.6 2997.8,602.5 			" />
					<path class="st1" d="M2897.9,524.9v77.3"/>
					<path class="st1" d="M3010,525.2l-12.2,77.3L2937,979"/>
					<polyline class="st1" points="2770.5,524.9 2900.7,524.9 2900.7,602.2 2770.5,602.2 2770.5,524.9 			" />
					<path class="st1" d="M2767.8,524.9v77.3"/>
					<polyline class="st1" points="2770.5,524.9 2770.5,602.2 2611.2,602.2 			"/>
					<path class="st1" d="M2613.9,524.9v77.3"/>
					<polyline class="area1" id="包厢V39" points="2457.4,602.2 2611.2,602.2 2611.2,524.9 2457.4,518.5 2457.4,602.2 			" />
					<!-- <text transform="matrix(1 0 0 1 2477.4,578.5)" class="text">V39</text> -->

					<path class="st1" d="M2454.6,602.2"/>
					<path class="st1" d="M2454.6,524.9"/>
					<path class="st1" d="M2300.8,524.9v77.3" />
					<polyline class="area1" id="包厢V38" points="2457.4,518.5 2299.4,518.5 2298,602.2 2457.4,602.2 2457.4,524.9 			" />
					<!-- <text transform="matrix(1 0 0 1 2337.4,578.5)" class="text">V38</text> -->

					<path class="st1" d="M2457.4,524.9" />
					<polyline class="area1" id="包厢V36" points="2141.4,602.2 1985,602.2 1985,524.9 2141.4,524.9 2141.4,602.2 			" />
					<!-- <text transform="matrix(1 0 0 1 2017.4,578.5)" class="text">V36</text> -->

					<path class="st1" d="M3683.1,1499.6v-303.1l-78.4-241.2L3544,874l-85.6-126.9l-206.3-149.9l-99.3-33.1l28.1-80.8l27.4,9.6
				l24.4-69.9l-27.4-9.6l60.5-147.3l0,0c103.8,28.8,193.4,94.7,251.9,185.2l25,38.8L3454,564l-17-22l-59,49l16,22l-56.2,46.4" />
					<path class="st1" d="M3728.3,745.6l-66.4,46.2l-27-31.7l-72,53l24.2,33l-36.2,28.4" />
					<path class="st1" d="M3009.8,518.5"/>
					<path class="area" id="309区" d="M2320.1,518.5L2320,433h29v-74h-29V173l135.9,0l136.3,0L2592,361h-30v74h30l0.2,85.5h-134.8h-158l-1.3,83.6
				v-87.3" />
					<path class="st1" d="M2144.2,524.9v77.3"/>
					<polygon class="area1" id="包厢V37" points="2298,602.2 2141.4,602.2 2141.4,524.9 2299.4,518.5 			"/>
					<!-- <text transform="matrix(1 0 0 1 2177.4,578.5)" class="text">V37</text> -->

					<path class="st1" d="M1831,602.2"/>
					<path class="st1" d="M1831,524.9"/>
					<path class="st1" d="M1828.4,602.2v-77.3"/>
					<path class="area1" id="包厢V33" d="M1828.4,602.2l-132.3-1.2l2.1-76h130.2V602.2L1828.4,602.2" />
					<!-- <text transform="matrix(1 0 0 1 1718,578.5)" class="text">V33</text> -->

					<path class="st1" d="M1698.2,524.9"/>
					<path class="st1" d="M1828.4,602.2"/>
					<path class="st1" d="M1591.5,524.9l12.2,77.3"/>
					<path class="st1" d="M1557.3,1010.6"/>
					<polyline class="area" id="306区" points="1492.1,550.01 1463.25,473.39 1490.54,463.57 1465.48,393.94 1438.19,403.76 1375.21,228.75
			 1666.16,172.91 1666,359 1636,359 1636,433 1666,433 1666.17,521.52 1588.84,525.24" />



					<path class="st1" d="M1246.1,678.1l45.4,62.5"/>
					<polyline class="area1" id="包厢V31" points="1471.12,553.52 1588.84,525.24 1601.08,602.52 1492.36,637.8 1471.12,553.52" />
					<!-- <text transform="matrix(1 0 0 1 1495.4,600.8)" class="text">V31</text> -->

					<path class="st1" d="M1350.9,602.6l35.5,69.6"/>

					<polyline class="area" id="305区" points="1044.77,389.39 1334.88,243.19 1397.72,418.34 1369.49,428.5 1394.55,498.13 1422.78,487.97
			 1452.957,564.541 1348.48,603.84 1262.68,666.109 1204.22,589.03 1227.34,571.52 1182.67,512.52 1159.55,530.03 1044.77,389.39"/>

					<polyline class="area1" id="包厢V30" points="1348.48,603.84 1384,673.56 1492.36,637.8 1471.12,553.52 1348.48,603.84" />
					<!-- <text transform="matrix(1 0 0 1 1378.48,633.84)" class="text">V30</text> -->


					<path class="st1" d="M1144.1,752.8l55.3,55.3" />
					<path class="area1" id="包厢V29" d="M1384,673.6l-35.5-69.7l-100.2,72.7l45.5,62.5L1384,673.6z" />
					<!-- <text transform="matrix(1 0 0 1 1280,687.6)" class="text">V29</text> -->

					<path class="st1" d="M1201.4,806.2"/>
					<path class="st1" d="M1146,750.8"/>
					<path class="st1" d="M1071.4,853l62.5,45.4"/>
					<path class="area" id="303区" d="M968.2,1042.8l-90.7-32.9l9.9-27.3l-69.6-25.3l-9.9,27.3L633.8,930l0.1-0.4
				c29.2-91.1,73.3-176.7,130.6-253.3l0,0l156.7,99.2l-16.8,24.9l61.3,41.4l16.8-24.9l74.6,55.4L997,955.2L968.2,1042.8" />
					<polyline class="st1" points="1069.7,855.1 997,955.2 1066.7,990.7 997,955.2 			" />

					<path class="area1" id="包厢V27" d="M1201.4,806.2l-55.3-55.3l-76.3,104.3l62.5,45.4L1201.4,806.2z" />
					<!-- <text style="font-size: 45px" transform="matrix(1 0 0 1 1090,850.6)" class="text">V27</text> -->

					<polyline class="area" id="102区" points="1066.72,990.72  1410.2,1159.6 1372.4,1285.2 997,1274.5 995.3,1210.6 			" />
					<text transform="matrix(1 0 0 1 1150 1160)" class="text">102区</text>
					<text transform="matrix(1 0 0 1 1150 1220)" class="text1" id="102区-text">000</text>

					<polyline class="area" id="103区" points="1280,750.6 1440.2,980.6 1340.4,1090.2 1087,968.5 1201.4,806.2 			" />
					<text transform="matrix(1 0 0 1 1230 920)" class="text">103区</text>
					<text transform="matrix(1 0 0 1 1230 980)" class="text1" id="103区-text">000</text>

					<polyline class="area" id="104区" points="1555,618.6 1630.2,975.6 1517.4,1033.2 1311,730.5 1384,673 1555,618.6 			" />
					<text transform="matrix(1 0 0 1 1450 830)" class="text">104区</text>
					<text transform="matrix(1 0 0 1 1450 890)" class="text1" id="119区-text">000</text>

					<path class="st1" d="M956.7,1078l73.6,23.8"/>
					<polyline class="area1" id="包厢V25" points="997,955.2 957.5,1075.3 1031.1,1099.2 1066.7,990.7 997,955.2 			" />
					<!-- <text style="font-size: 40px" transform="matrix(1 0 0 1 977,1055.2)" class="text">V25</text> -->

					<path class="st1" d="M918.5,1195.6l77.3,12.2"/>
					<polyline class="area1" id="包厢V23" points="918,1198.3 995.3,1210.6 918,1198.3 918,1198.3 995.3,1210.6 1031.1,1099.2 957.5,1075.3 
				918,1198.3 			" />
					<!-- <text style="font-size: 42px" transform="matrix(1 0 0 1 944,1165.2)" class="text">V23</text> -->

					<path class="st1" d="M995.3,1322"/>
					<path class="st1" d="M2495.3,2467.6"/>
					<path class="st1" d="M2729.8,2409.2"/>
					<path class="st1" d="M2705.4,2409.2"/>
					<path class="st1" d="M2905.5,2422.8"/>
					<path class="st1" d="M2905.5,2448.6"/>
					<path class="st1" d="M1772.8,2409.2"/>
					<path class="st1" d="M1748.3,2409.2"/>
					<path class="st1" d="M1693.4,2416.1"/>
					<path class="st1" d="M1693.4,2441.8"/>
					<path class="st1" d="M1693.4,2435"/>
					<path class="st1" d="M1693.4,2435"/>
					<path class="st1" d="M1693.4,2409.2"/>
					<path class="st1" d="M1668.9,2409.2"/>
					<path class="st1" d="M2016,472.3"/>
					<path class="st1" d="M2009.3,472.3"/>
					<path class="st1" d="M1963.2,472.3"/>
					<path class="st1" d="M1970,485.9"/>
					<path class="st1" d="M2002.5,508.9"/>
					<path class="st1" d="M2002.5,218.9"/>
					<path class="st1" d="M1704.4,2490.1"/>
					<path class="st1" d="M2283.2,508.9"/>
					<path class="st1" d="M2315.7,508.9"/>
					<path class="st1" d="M2315.7,2490.1"/>
					<path class="st1" d="M3510.5,2553.3"/>
					<path class="st1" d="M3077.7,2790.4"/>
					<path class="st1" d="M2513,968.6"/>
					<path class="st1" d="M2480.4,968.6"/>
					<path class="st1" d="M2480.4,968.6"/>
					<path class="st1" d="M2513,968.6"/>
					<path class="st1" d="M2731.2,634.7"/>
					<path class="st1" d="M2698.7,634.7"/>
					<path class="st1" d="M2731.2,611.3"/>
					<path class="st1" d="M2698.7,611.3"/>
					<path class="st1" d="M2698.7,619"/>
					<path class="st1" d="M2698.7,627"/>
					<path class="st1" d="M2731.2,627"/>
					<path class="st1" d="M2731.2,603.7"/>
					<path class="st1" d="M2731.2,968.6"/>
					<path class="st1" d="M2698.7,968.6"/>
					<path class="st1" d="M2698.7,968.6"/>
					<path class="st1" d="M2731.2,968.6"/>
					<path class="st1" d="M2118.4,611.3"/>
					<path class="st1" d="M2085.9,611.3"/>
					<path class="st1" d="M2085.9,968.6"/>
					<path class="st1" d="M2118.4,968.6"/>
					<path class="st1" d="M1900.1,611.3"/>
					<path class="st1" d="M1900.1,619"/>
					<path class="st1" d="M1867.6,619"/>
					<path class="st1" d="M1867.6,627"/>
					<path class="st1" d="M1867.6,603.7"/>
					<path class="st1" d="M1900.1,603.7"/>
					<path class="st1" d="M1900.1,961.1"/>
					<path class="st1" d="M1867.6,961.1"/>
					<path class="st1" d="M1867.6,968.6"/>
					<path class="st1" d="M2340,2418.7"/>
					<path class="st1" d="M2698.7,2030.5v15.2"/>
					<path class="st1" d="M2731.2,2030.5"/>
					<path class="st1" d="M2513,2387.9"/>
					<path class="st1" d="M2513,2030.5"/>
					<path class="st1" d="M2480.4,2030.5"/>
					<path class="st1" d="M2118.4,2387.9"/>
					<path class="st1" d="M2118.4,2038.1"/>
					<path class="st1" d="M1900.1,2387.9"/>
					<path class="st1" d="M1900.1,2038.1"/>
					<path class="st1" d="M3132.6,964.9"/>
					<polyline class="st1" points="3043.2,619 2972,994 3043,1011 3077.8,1040.4 3133,969 3292.1,731.6 			" />
					<path class="st1" d="M2936.7,979.4"/>
					<path class="st1" d="M2769.2,979.4"/>
					<path class="st1" d="M2299.5,979.4"/>
					<path class="st1" d="M3728.3,2253.6l-70.8-54.3L3626,2237l-60-43l30-34l-48.4-37.7l57-78.5l78.5-241.2v-303" />
					<path class="st1" d="M3728.3,745.6"/>
					<path class="st1" d="M3728.3,2253.6"/>
					<path class="st1" d="M1829.7,978.1"/>
					<path class="st1" d="M2299.4,978.1"/>
					<path class="st1" d="M1521.3,1038.5"/>
					<path class="st1" d="M1557.9,1011.8"/>
					<path class="st1" d="M1323.8,1883.5"/>
					<path class="st1" d="M1402.6,1989.7"/>
					<path class="st1" d="M1521.3,1960.7"/>
					<path class="st1" d="M1466.4,2036.2"/>
					<path class="st1" d="M1557.9,1987.2"/>
					<path class="st1" d="M1521.3,1960.7"/>
					<path class="st1" d="M1661.7,976.8"/>
					<path class="st1" d="M1829.7,976.8"/>
					<path class="st1" d="M1466.8,961.1"/>
					<path class="st1" d="M1348.4,962.9"/>
					<path class="st1" d="M1401.6,1990.7"/>
					<path class="st1" d="M1521.6,1962.6"/>
					<path class="st1" d="M1557.3,1988.5"/>
					<path class="st1" d="M1521.6,1962.6"/>
					<path class="st1" d="M1829.7,2022.4"/>
					<path class="st1" d="M3305.6,1315.2"/>
					<path class="st1" d="M2938.5,2030.5"/>
					<path class="st1" d="M2969.8,2020.3"/>
					<path class="st1" d="M2698.7,2030.5"/>
					<path class="st1" d="M2937.2,2022.4"/>
					<path class="st1" d="M3041.6,1988.5"/>
					<path class="st1" d="M2299.4,2022.4"/>
					<path class="st1" d="M2769.2,2022.4"/>
					<path class="st1" d="M1277.7,1899.4"/>
				</g>
			</g>
		</g>
		<line class="st1" x1="1280.4" y1="750.7" x2="1444" y2="979" />
		<polyline class="area" id="107区" points="2118,604 2118,979.4 2480.4,979 2480.4,603.7 " />
		<text transform="matrix(1 0 0 1 2255 790)" class="text">107区</text>
		<text transform="matrix(1 0 0 1 2255 850)" class="text1" id="107区-text">000</text>

		<polyline class="area" id="108区" points="2510,604 2510,979 2697.3,979.4 2697.3,603.7 " />
		<text transform="matrix(1 0 0 1 2555 790)" class="text">108区</text>
		<text transform="matrix(1 0 0 1 2555 850)" class="text1" id="108区-text">000</text>


		<polyline class="st1" points="2731,604 2731,979.4 2937,979 " />

		<polyline class="area" id="120区" points="2087.2,2397 2087.2,2019.7 1897.3,2021 1897.3,2397 " />
		<text transform="matrix(1 0 0 1 1950 2184)" class="text">120区</text>
		<text transform="matrix(1 0 0 1 1950 2244)" class="text1" id="120区-text">000</text>

		<polyline class="area" id="119区" points="2479.4,2398.4 2479,2020 2118,2019.7 2118,2397 " />
		<text transform="matrix(1 0 0 1 2255 2184)" class="text">119区</text>
		<text transform="matrix(1 0 0 1 2255 2244)" class="text1" id="119区-text">000</text>

		<polyline class="area" id="118区" points="2698.7,2395.4 2699,2031 2514,2020 2514.1,2398.4 " />
		<text transform="matrix(1 0 0 1 2555 2184)" class="text">118区</text>
		<text transform="matrix(1 0 0 1 2555 2244)" class="text1" id="118区-text">000</text>


		<line class="st1" x1="3042" y1="1989" x2="2970" y2="2020" />
		<text transform="matrix(1 0 0 1 2410 340)" class="text">309区</text>
		<text transform="matrix(1 0 0 1 2410 400)" class="text1" id="309区-text">000</text>

		<polygon class="area" id="308区" points="2006.9,518.5 2006.9,433 2035.9,433 2035.9,359 2006.9,359 2006.9,173 2141.3,173 2276,172.9 
	2275.9,359 2245.9,359 2245.9,433 2275.9,433 2276,518.5 " />
		<text transform="matrix(1 0 0 1 2100 340)" class="text">308区</text>
		<text transform="matrix(1 0 0 1 2100 400)" class="text1" id="308区-text">000</text>

		<polygon class="area" id="310区" points="2635.1,518.5 2635,433 2664,433 2664,359 2635,359 2635,173 2756.4,173 2880.2,172.9 2880,359 
	2850,359 2850,433 2880,433 2880.2,518.5 " />
		<text transform="matrix(1 0 0 1 2700 340)" class="text">310区</text>
		<text transform="matrix(1 0 0 1 2700 400)" class="text1" id="310区-text">000</text>


		<path class="st1" d="M3009.8,518.5h-86.7L2923,433h29v-74h-29V173l54.2,6.6c67,8.2,132.9,23.9,196.3,46.9l59.3,21.4l-68,151.3
	l-28.3-9.9l-24.4,69.9l28.3,9.9l-28,80.8L3009.8,518.5z" id="311"/>



		<polygon class="area" id="307区" points="1709.1,518.5 1709,433 1738,433 1738,359 1709,359 1709,173 1835.9,173 1965.2,172.9 1965,359 
	1935,359 1935,433 1965,433 1965.2,518.5 " />
		<text transform="matrix(1 0 0 1 1790 340)" class="text">307区</text>
		<text transform="matrix(1 0 0 1 1790 400)" class="text1" id="307区-text">000</text>
		<text transform="matrix(1 0 0 1 690 1500)" class="text">301区</text>
		<text transform="matrix(1 0 0 1 690 1560)" class="text1" id="301区-text">000</text>
		<text transform="matrix(1 0 0 1 700 1790)" class="text">325区</text>
		<text transform="matrix(1 0 0 1 700 1870)" class="text1" id="325区-text">000</text>
		<path class="st1" d="M3152.5,2430.5l28,80.8l28.4-9.8l24.1,70l-28.4,9.8l61.3,151.4l0,0c119.5-0.5,297.1-147.8,255.7-195.7l2.5-9.3
	l-76.3-89.5l-23,21.1l-48.5-52.8" />
		<polyline class="area" id="318区" points="2320.8,2477.9 2321,2563.4 2351,2563.4 2351,2637.4 2321,2637.4 2320.8,2823.5 2591,2823.4 
	2591,2637.4 2562,2637.4 2562,2563.4 2591,2563.4 2590.9,2477.9 " />
		<text transform="matrix(1 0 0 1 2410 2639)" class="text">318区</text>
		<text transform="matrix(1 0 0 1 2410 2699)" class="text1" id="318区-text">000</text>

		<polyline class="area" id="317区" points="2633.8,2477.9 2634,2563.4 2664,2563.4 2664,2637.4 2634,2637.4 2633.8,2823.5 2879,2823.4 
	2879,2637.4 2850,2637.4 2850,2563.4 2879,2563.4 2878.9,2477.9 " />
		<text transform="matrix(1 0 0 1 2700 2639)" class="text">317区</text>
		<text transform="matrix(1 0 0 1 2700 2699)" class="text1" id="317区-text">000</text>


		<polyline class="area" id="319区" points="2006.8,2477.9 2007,2563.4 2037,2563.4 2037,2637.4 2007,2637.4 2006.8,2823.5 2278,2823.4 
	2278,2637.4 2249,2637.4 2249,2563.4 2278,2563.4 2277.9,2477.9 "/>
		<text transform="matrix(1 0 0 1 2100 2639)" class="text">319区</text>
		<text transform="matrix(1 0 0 1 2100 2699)" class="text1" id="319区-text">000</text>

		<polyline class="area" id="320区" points="1707.8,2477.9 1708,2563.4 1738,2563.4 1738,2637.4 1708,2637.4 1707.8,2823.5 1964,2823.4 
	1964,2637.4 1935,2637.4 1935,2563.4 1964,2563.4 1963.9,2477.9 " />
		<text transform="matrix(1 0 0 1 1792 2639)" class="text">320区</text>
		<text transform="matrix(1 0 0 1 1792 2699)" class="text1" id="320区-text">000</text>

		<path class="st1" d="M2921.8,2477.9l0.2,85.5h30v74h-30l-0.2,186.1l28.2,6.5c135.9-27.1,235.9-49,282.9-79.1l0,0l-69-155.6
	l-27.4,9.4l-24.1-70l27.4-9.4l-27.9-80.9" />
		<path class="st1" d="M3373.2,2309.4l49,54l21.2-17l51.7,56.6l-21.2,18l78,85l35.5-13.4c97.2-36.6,198.5-183.6,140.5-238.6l0,0"/>
		<polyline class="st1" points="3376.2,2406.6 3396.3,2385.7 3350.7,2327.1 " />

		<path class="area" id="302区" d="M918,1198.3l35.7-111.2l-90.9-36.9l-10.3,28.2l-69.6-25.3l10.3-28.2L626,958l-2.6,8.7
	c-38,126.2-57.3,257.2-57.3,389l0,0h182.2v-29h74v29l85.5-0.1L918,1198.3" />
		<text transform="matrix(1 0 0 1 695 1170)" class="text">302区</text>
		<text transform="matrix(1 0 0 1 695 1250)" class="text1" id="302区-text">000</text>

		<text transform="matrix(1 0 0 1 790 2115)" class="text">324区</text>
		<text transform="matrix(1 0 0 1 790 2175)" class="text1" id="324区-text">000</text>

		<text transform="matrix(1 0 0 1 965 2360)" class="text">323区</text>
		<text transform="matrix(1 0 0 1 965 2420)" class="text1" id="323区-text">000</text>


		<path class="area" id="304区" d="M1169.9,615l-23.9,18.1l-44.7-59l23.9-18.1l-113.8-142.4l-11.6,9.7C923.6,486.8,855.5,559.6,797.1,640l0,0
	l148.2,99.9l16.2-24l61.3,41.4l-16.2,24l76.3,55.8l63.1-86.2l79-57.4L1169.9,615z" />
		<text transform="matrix(1 0 0 1 955 624)" class="text">304区</text>
		<text transform="matrix(1 0 0 1 955 687)" class="text1" id="304区-text">000</text>

		<text transform="matrix(1 0 0 1 1225 444)" class="text">305区</text>
		<text transform="matrix(1 0 0 1 1225 504)" class="text1" id="305区-text">000</text>

		<text transform="matrix(1 0 0 1 805 864)" class="text">303区</text>
		<text transform="matrix(1 0 0 1 805 924)" class="text1" id="303区-text">000</text>

		<text transform="matrix(1 0 0 1 1506 340)" class="text">306区</text>
		<text transform="matrix(1 0 0 1 1506 400)" class="text1" id="306区-text">000</text>

		<text transform="matrix(1 0 0 1 1201 2549)" class="text">322区</text>
		<text transform="matrix(1 0 0 1 1201 2619)" class="text1" id="322区-text">000</text>

		<text transform="matrix(1 0 0 1 1506 2639)" class="text">321区</text>
		<text transform="matrix(1 0 0 1 1506 2699)" class="text1" id="321区-text">000</text>




		<!-- <rect id="F区" x="1547" y="1123" class="area" width="177" height="139" />
<text transform="matrix(1 0 0 1 1585 1190)" class="text"><tspan x="0" y="0" class="text">F</tspan><tspan x="36.7" y="0" class="text">区</tspan></text>
<text transform="matrix(1 0 0 1 1585 1250)" class="text1" id="F区-text">000</text>

<rect id="G区" x="1548" y="1319" class="area" width="176" height="368"/>
<text transform="matrix(1 0 0 1 1585 1519)" class="text"><tspan x="0" y="0" class="text">G</tspan><tspan x="46.7" y="0" class="text">区</tspan></text>
<text transform="matrix(1 0 0 1 1585 1599)" class="text1" id="G区-text">000</text>

<rect id="A区" x="1781" y="1319" class="area" width="368" height="368"/>
<text transform="matrix(1 0 0 1 1900 1519)" class="text">A区</text>
<text transform="matrix(1 0 0 1 1900 1599)" class="text1" id="A区-text">000</text>

<rect id="D区" x="1778" y="1123" class="area" width="375" height="139"/>
<text transform="matrix(1 0 0 1 1900 1190)" class="text"><tspan x="0" y="0" class="text">D</tspan><tspan x="43.3" y="0" class="text">区</tspan></text>
<text transform="matrix(1 0 0 1 1900 1250)" class="text1" id="D区-text">000</text>

<rect id="B区" x="2204" y="1123" class="area" width="294" height="120"/>
<text transform="matrix(1 0 0 1 2300 1170)" class="text"><tspan x="0" y="0" class="text">B</tspan><tspan x="40" y="0" class="text">区</tspan></text>
<text transform="matrix(1 0 0 1 2300 1230)" class="text1" id="B区-text">000</text>

<rect id="C区" x="2204" y="1763" class="area" width="294" height="120"/>
<text transform="matrix(1 0 0 1 2300 1820)" class="text"><tspan x="0" y="0" class="text">C</tspan><tspan x="43.3" y="0" class="text">区</tspan></text>
<text transform="matrix(1 0 0 1 2300 1870)" class="text1" id="C区-text">000</text>

<rect id="H区" x="1547" y="1744" class="area" width="177" height="139"/>
<text transform="matrix(1 0 0 1 1580 1820)" class="text"><tspan x="0" y="0" class="text">H</tspan><tspan x="43.3" y="0" class="text">区</tspan></text>
<text transform="matrix(1 0 0 1 1580 1870)" class="text1" id="H区-text">000</text>

<rect id="E区" x="1777" y="1744" class="area" width="375" height="139"/>
<text transform="matrix(1 0 0 1 1900 1820)" class="text"><tspan x="0" y="0" class="text">E</tspan><tspan x="40" y="0" class="text">区</tspan></text>
<text transform="matrix(1 0 0 1 1900 1870)" class="text1" id="E区-text">000</text> -->



		<polygon points="2069.9,1921.3 1824.6,1920.4 1830.1,1560 2075.4,1560.9 " id="E区" class="area"/>
		<text transform="matrix(1 0 0 1 1910 1730)" class="text">D区</text>
		<text transform="matrix(1 0 0 1 1910 1805)" class="text1" id="D区-text">000</text>

		<polygon points="2073.1,1456.2 1827.8,1455.2 1833.3,1064.6 2078.6,1065.6 " id="E区" class="area"/>
		<text transform="matrix(1 0 0 1 1910 1230)" class="text">C区</text>
		<text transform="matrix(1 0 0 1 1910 1305)" class="text1" id="C区-text">000</text>


		<polygon points="1751.3,1456.2 1506,1455.2 1511.6,1064.6 1756.9,1065.6 " id="E区" class="area" />
		<text transform="matrix(1 0 0 1 1585 1230)" class="text">E区</text>
		<text transform="matrix(1 0 0 1 1585 1305)" class="text1" id="E区-text">000</text>


		<polygon points="1751.3,1921.3 1506,1920.4 1511.6,1560 1756.9,1560.9 " id="F区" class="area" />
		<text transform="matrix(1 0 0 1 1585 1730)" class="text">F区</text>
		<text transform="matrix(1 0 0 1 1585 1805)" class="text1" id="F区-text">000</text>



		<polygon points="2144.2,1064.6 2510,1064.6 2510,1409.1 2359.3,1409.1 2276,1309.8 2140.8,1309.8 " id="A区" class="area"/>
		<text transform="matrix(1 0 0 1 2285 1180)" class="text">A区</text>
		<text transform="matrix(1 0 0 1 2285 1255)" class="text1" id="A区-text">000</text>

		<polygon points="2131.3,1921.3 2497.1,1921.3 2497.1,1595.5 2346.4,1595.5 2263.1,1689.4 2128,1689.4 " id="B区" class="area" />
		<text transform="matrix(1 0 0 1 2285 1780)" class="text">B区</text>
		<text transform="matrix(1 0 0 1 2285 1855)" class="text1" id="B区-text">000</text>

		<rect x="2552.5" y="1064.6" class="area" width="108" height="344.5" id="领导A区" />
		<text transform="matrix(1 0 0 1 2555 1195)" class="text">领导</text>
		<text transform="matrix(1 0 0 1 2555 1255)" class="text">A区</text>
		<text transform="matrix(1 0 0 1 2555 1355)" class="text1" id="领导A区-text">000</text>

		<rect x="2549.6" y="1595.5" class="area" width="108" height="325.8" id="领导B区" />
		<text transform="matrix(1 0 0 1 2555 1695)" class="text">领导</text>
		<text transform="matrix(1 0 0 1 2555 1755)" class="text">B区</text>
		<text transform="matrix(1 0 0 1 2555 1855)" class="text1" id="领导B区-text">000</text>


		<path id="stage" class="st1" d="M3077.4,1099l11,804.8H2970c-42.3-38.7-100.6-101.5-148.1-192.1c-35.3-67.4-54-117.9-64.3-165.7
	c-145.9,0-321.8,0-467.6,0l-67.6,37.4l-71.6-39.8l-1.3-81.9l70.3-42.1l75.6,39.8l466.2-2.7c-0.1-34.8,12-163.4,66.3-238.1
	c50.2-69,110.7-104.1,142-119.5C3005.8,1099,3041.6,1099,3077.4,1099z" />
		<text transform="matrix(1 0 0 1 2900 1470)" class="st10">舞</text>
		<text transform="matrix(1 0 0 1 2900 1670)" class="st10">台</text>






		<path class="st1" d="M2770.5,524.9h-159.2H2770.5z" />
		<polygon class="st1" points="2900.7,602.2 2997.8,602.5 3009.8,518.5 2900.7,524.9 "/>
		<polyline class="st1" points="3252.2,597.2 3009.8,518.5 2997.8,602.5 " />
		<path class="st1" d="M3369.8,682.8L3415,640l20,21l55-46l-20-24l93-72l0,0c63.9,55.4,115.3,123.8,150.6,200.6L3728,751l-66,40.7
	l-27-31.7l-72,53l24.2,33" />
		<path class="st1" d="M1828.4,602.2" />
		<path class="st1" d="M2457.4,518.5"/>
		<path class="st1" d="M1985,602.2h-156.6H1985z"/>
		<polygon class="area1" id="包厢V35" points="1985,526.9 1985,604.2 1828.4,602.2 1828.4,524.9 " />
		<!-- <text transform="matrix(1 0 0 1 1860.4,578.5)" class="text">V35</text> -->

		<polygon class="area1" id="包厢V32" points="1698.2,524.9 1588.8,525.2 1601.1,602.5 1696,600.9 " />
		<!-- <text transform="matrix(1 0 0 1 1600.4,582.5)" class="text">V32</text> -->

		<polygon class="area1" id="包厢V28" points="1248.3,676.6 1146,750.8 1201.4,806.2 1293.8,739.1 " />
		<!-- <text transform="matrix(1 0 0 1 1180.4,760.5)" class="text">V28</text> -->

		<polygon class="area1" id="包厢V26" points="1132.2,900.5 1069.7,855.1 997,955.2 1066.7,990.7 " />
		<!-- <text style="font-size:45px" transform="matrix(1 0 0 1 1027.4,940.5)" class="text">V26</text> -->

		<polygon class="area1" id="包厢V22" points="997,1315.2 910.4,1315.2 918,1198.3 995.3,1210.6 " />
		<!-- <text style="font-size:45px" transform="matrix(1 0 0 1 918.4,1275.5)" class="text">V22</text> -->

		<polygon class="area1" id="包厢V21" points="910.4,1315.2 907.8,1503 995.3,1501 997,1315.2 " />
		<!-- <text style="font-size:45px" transform="matrix(1 0 0 1 918.4,1425.5)" class="text">V21</text> -->

		<polygon class="area1" id="包厢V20" points="995.3,1501 995.3,1674.5 909.4,1674.5 907.8,1503 " />
		<!-- <text style="font-size:45px" transform="matrix(1 0 0 1 918.4,1595.5)" class="text">V20</text> -->

		<polygon class="area1" id="包厢V19" points="995.3,1674.5 995.3,1788.6 918,1800.8 909.4,1674.5 " />
		<!-- <text style="font-size:45px" transform="matrix(1 0 0 1 918.4,1745.5)" class="text">V19</text> -->

		<polyline class="area1" id="包厢V17" points="1031.1,1900 1065.5,2006 995.8,2041.6 957.5,1923.8 1022.1,1900 "/>
		<!-- <text style="font-size:45px" transform="matrix(1 0 0 1 970.4,1965.5)" class="text">V17</text> -->

		<polygon class="area1" id="包厢V15" points="1133.9,2100.8 1071.4,2146.2 1144.1,2246.4 1199.4,2191.1 " />
		<!-- <text style="font-size:45px" transform="matrix(1 0 0 1 1098.4,2200.5)" class="text">V15</text> -->

		<polygon class="area1" id="包厢V13" points="1199.4,2191.1 1291.5,2258.5 1248.3,2322.6 1144.1,2246.4 " />
		<!-- <text style="font-size:50px" transform="matrix(1 0 0 1 1178.4,2270.5)" class="text">V13</text> -->

		<polygon class="area1" id="包厢V12" points="1291.5,2258.5 1248.3,2322.6 1348.5,2395.3 1384,2325.6 " />
		<!-- <text style="font-size:50px" transform="matrix(1 0 0 1 1268.4,2335.5)" class="text">V12</text> -->

		<polygon class="area1" id="包厢V10" points="1492.4,2361.4 1468.5,2434.8 1588.8,2473.9 1603.7,2397 " />
		<!-- <text style="font-size:50px" transform="matrix(1 0 0 1 1488.4,2435.5)" class="text">V10</text> -->

		<polygon class="area1" id="包厢V09" points="1588.8,2473.9 1698.1,2477.9 1698.1,2398.4 1603.7,2397 " />
		<!-- <text style="font-size:50px" transform="matrix(1 0 0 1 1608.4,2455.5)" class="text">V09</text> -->

		<polygon class="area1" id="包厢V08" points="1831,2397 1698.1,2398.4 1698.1,2477.9 1831,2474.3 " />
		<!-- <text style="font-size:50px" transform="matrix(1 0 0 1 1718.4,2455.5)" class="text">V08</text> -->

		<rect x="1831" y="2397" class="area1" id="包厢V07" width="154" height="77.3"/>
		<!-- <text style="font-size:50px" transform="matrix(1 0 0 1 1858.4,2455.5)" class="text">V07</text> -->

		<polygon class="area1" id="包厢V06" points="1985,2397 2144.2,2397 2141.4,2474.3 1985,2474.3 " />
		<!-- <text style="font-size:50px" transform="matrix(1 0 0 1 2018.4,2455.5)" class="text">V06</text> -->

		<polygon class="area1" id="包厢V05" points="2300.8,2397 2298,2474.3 2141.4,2474.3 2144.2,2397 " />
		<!-- <text transform="matrix(1 0 0 1 2178.4,2455.5)" class="text">V05</text> -->

		<polygon class="area1" id="包厢V03" points="2300.8,2397 2454.6,2397 2454.6,2474.3 2298,2474.3 " />
		<!-- <text transform="matrix(1 0 0 1 2320 2457)" class="text">V03</text> -->



		<rect class="area1" id="包厢V02" x="2454.6" y="2397" width="156.6" height="77.3" />
		<!-- <text style="font-size:48px" transform="matrix(1 0 0 1 2488.4,2455.5)" class="text">V02</text> -->

	</symbol>
</svg>
