<svg version="1.1" xmlns="http://www.w3.org/2000/svg" xmlns:xlink="http://www.w3.org/1999/xlink" width="1172.0000000000036" height="668.0000000000018"><defs/><g><g transform="translate(-14233.581385281377,-6363.725324675323)" id="34fc1c4e" name="image"><path fill="none" stroke="none"/><g><image width="1152.000000000003" height="49.200000000000124" preserveAspectRatio="none" transform="translate(14243.581385281377, 6373.725324675323)" xlink:href="https://assets.le5lecdn.com/v/material/标题/大标题背景框2.png"/></g></g><g transform="translate(-14233.581385281377,-6363.725324675323)" id="2d150116" name="image"><path fill="none" stroke="none"/><g><image width="16.80000000000004" height="427.200000000001" preserveAspectRatio="none" transform="translate(15115.031385281382, 6500.325324675321)" xlink:href="https://assets.le5lecdn.com/v/material/装饰/侧边装饰2.svg"/></g></g><g transform="translate(-14233.581385281377,-6363.725324675323)" id="fbdffe9" name="image"><path fill="none" stroke="none" d=""/><g transform="translate(29023.56277056276,0) scale(-1,1)"><g><image width="16.80000000000004" height="427.200000000001" preserveAspectRatio="none" transform="translate(14503.38138528138, 6500.325324675321)" xlink:href="https://assets.le5lecdn.com/v/material/装饰/侧边装饰2.svg"/></g></g></g><g transform="translate(-14233.581385281377,-6363.725324675323)" id="51143939" name="image"><path fill="none" stroke="none"/><g><image width="1152.000000000003" height="21.600000000000055" preserveAspectRatio="none" transform="translate(14243.581385281377, 6998.775324675325)" xlink:href="https://assets.le5lecdn.com/v/material/装饰/底部装饰2.png"/></g></g><g transform="translate(-14233.581385281377,-6363.725324675323)" id="814cdd2" name="square"><path fill="none" stroke="none"/><g><path fill="none" stroke="none"/></g><g><text fill="#278df8" stroke="none" font-family="&quot;Hiragino Sans GB&quot;, &quot;Microsoft YaHei&quot;, &quot;Helvetica Neue&quot;, Helvetica, Arial " font-size="7.200000000000001px" font-style="normal" font-weight="normal" text-decoration="normal" x="15227.58138528138" y="6698.265324675323" text-anchor="start" dominant-baseline="central"></text></g></g><g transform="translate(-14233.581385281377,-6363.725324675323)" id="79b3bc2" name="square"><path fill="none" stroke="none" d=""/><g transform="translate(28823.162770562754,0) scale(-1,1)"><g><path fill="none" stroke="none"/></g><g><text fill="#bdc7db" stroke="none" font-family="&quot;Hiragino Sans GB&quot;, &quot;Microsoft YaHei&quot;, &quot;Helvetica Neue&quot;, Helvetica, Arial " font-size="7.200000000000001px" font-style="normal" font-weight="normal" text-decoration="normal" x="14411.581385281377" y="6698.265324675323" text-anchor="start" dominant-baseline="central"></text></g></g></g><g transform="translate(-14233.581385281377,-6363.725324675323)" id="4c611a08" name="image"><path fill="none" stroke="none"/><g><image width="219.6000000000004" height="24.000000000000043" preserveAspectRatio="none" transform="translate(14260.231385281375, 6431.87532467532)" xlink:href="https://assets.le5lecdn.com/v/material/标题/小标题背景2.png"/></g></g><g transform="translate(-14233.581385281377,-6363.725324675323)" id="5d0055f3" name="combine"><path fill="none" stroke="none"/></g><g transform="translate(-14233.581385281377,-6363.725324675323)" id="58448493" name="square"><path fill="none" stroke="none"/><g><path fill="rgb(0,15,20)" stroke="none" paint-order="stroke fill markers" d=" M 14260.231385281382 6467.875324675322 L 14479.831385281383 6467.875324675322 L 14479.831385281383 6611.875324675323 L 14260.231385281382 6611.875324675323 L 14260.231385281382 6467.875324675322" fill-opacity="0.6"/></g></g><g transform="translate(-14233.581385281377,-6363.725324675323)" id="23f5c6e" name="square"><path fill="none" stroke="none"/><g><path fill="rgb(0,15,20)" stroke="none" paint-order="stroke fill markers" d=" M 14260.231385281382 6467.858925612798 L 14479.831385281383 6467.858925612798 L 14479.831385281383 6611.858925612799 L 14260.231385281382 6611.858925612799 L 14260.231385281382 6467.858925612798" fill-opacity="0.6"/></g></g><g transform="translate(-14233.581385281377,-6363.725324675323)" id="5987b548" name="image"><path fill="none" stroke="none"/><g><image width="219.6000000000004" height="24.000000000000043" preserveAspectRatio="none" transform="translate(14260.231385281375, 6625.075324675323)" xlink:href="https://assets.le5lecdn.com/v/material/标题/小标题背景2.png"/></g></g><g transform="translate(-14233.581385281377,-6363.725324675323)" id="9b6d7a5" name="combine"><path fill="none" stroke="none"/></g><g transform="translate(-14233.581385281377,-6363.725324675323)" id="ac6fadc" name="square"><path fill="none" stroke="none"/><g><path fill="rgb(0,15,20)" stroke="none" paint-order="stroke fill markers" d=" M 14260.231385281382 6661.408742629219 L 14479.831385281383 6661.408742629219 L 14479.831385281383 6805.40874262922 L 14260.231385281382 6805.40874262922 L 14260.231385281382 6661.408742629219" fill-opacity="0.6"/></g></g><g transform="translate(-14233.581385281377,-6363.725324675323)" id="44d55210" name="square"><path fill="none" stroke="none"/><g><path fill="rgb(0,15,20)" stroke="none" paint-order="stroke fill markers" d=" M 14260.231385281382 6661.392343566695 L 14479.831385281383 6661.392343566695 L 14479.831385281383 6805.392343566696 L 14260.231385281382 6805.392343566696 L 14260.231385281382 6661.392343566695" fill-opacity="0.6"/></g></g><g transform="translate(-14233.581385281377,-6363.725324675323)" id="cacbc60" name="image"><path fill="none" stroke="none"/><g><image width="219.6000000000004" height="24.000000000000043" preserveAspectRatio="none" transform="translate(14260.231385281382, 6818.275324675322)" xlink:href="https://assets.le5lecdn.com/v/material/标题/小标题背景2.png"/></g></g><g transform="translate(-14233.581385281377,-6363.725324675323)" id="5abf4a" name="combine"><path fill="none" stroke="none"/></g><g transform="translate(-14233.581385281377,-6363.725324675323)" id="1e6a18b4" name="square"><path fill="none" stroke="none"/><g><path fill="rgb(0,15,20)" stroke="none" paint-order="stroke fill markers" d=" M 14260.231385281375 6854.7753246753255 L 14479.831385281375 6854.7753246753255 L 14479.831385281375 6998.775324675326 L 14260.231385281375 6998.775324675326 L 14260.231385281375 6854.7753246753255" fill-opacity="0.6"/></g></g><g transform="translate(-14233.581385281377,-6363.725324675323)" id="319081a" name="square"><path fill="none" stroke="none"/><g><path fill="rgb(0,15,20)" stroke="none" paint-order="stroke fill markers" d=" M 14260.231385281375 6854.758925612801 L 14479.831385281375 6854.758925612801 L 14479.831385281375 6998.758925612802 L 14260.231385281375 6998.758925612802 L 14260.231385281375 6854.758925612801" fill-opacity="0.6"/></g></g><g transform="translate(-14233.581385281377,-6363.725324675323)" id="7ae763c5" name="image"><path fill="none" stroke="none"/><g><image width="219.6000000000004" height="24.000000000000043" preserveAspectRatio="none" transform="translate(15160.831385281384, 6431.87532467532)" xlink:href="https://assets.le5lecdn.com/v/material/标题/小标题背景2.png"/></g></g><g transform="translate(-14233.581385281377,-6363.725324675323)" id="be4cb1c" name="combine"><path fill="none" stroke="none"/></g><g transform="translate(-14233.581385281377,-6363.725324675323)" id="16452a3b" name="square"><path fill="none" stroke="none"/><g><path fill="rgb(0,15,20)" stroke="none" paint-order="stroke fill markers" d=" M 15160.831385281384 6467.875324675322 L 15380.431385281385 6467.875324675322 L 15380.431385281385 6611.875324675323 L 15160.831385281384 6611.875324675323 L 15160.831385281384 6467.875324675322" fill-opacity="0.6"/></g></g><g transform="translate(-14233.581385281377,-6363.725324675323)" id="548d370e" name="square"><path fill="none" stroke="none"/><g><path fill="rgb(0,15,20)" stroke="none" paint-order="stroke fill markers" d=" M 15160.831385281384 6467.858925612798 L 15380.431385281385 6467.858925612798 L 15380.431385281385 6611.858925612799 L 15160.831385281384 6611.858925612799 L 15160.831385281384 6467.858925612798" fill-opacity="0.6"/></g></g><g transform="translate(-14233.581385281377,-6363.725324675323)" id="6889fc0c" name="image"><path fill="none" stroke="none"/><g><image width="219.6000000000004" height="24.000000000000043" preserveAspectRatio="none" transform="translate(15160.831385281384, 6625.075324675323)" xlink:href="https://assets.le5lecdn.com/v/material/标题/小标题背景2.png"/></g></g><g transform="translate(-14233.581385281377,-6363.725324675323)" id="0259795" name="combine"><path fill="none" stroke="none"/></g><g transform="translate(-14233.581385281377,-6363.725324675323)" id="305b08dc" name="square"><path fill="none" stroke="none"/><g><path fill="rgb(0,15,20)" stroke="none" paint-order="stroke fill markers" d=" M 15160.831385281384 6661.425141691743 L 15380.431385281385 6661.425141691743 L 15380.431385281385 6805.425141691744 L 15160.831385281384 6805.425141691744 L 15160.831385281384 6661.425141691743" fill-opacity="0.6"/></g></g><g transform="translate(-14233.581385281377,-6363.725324675323)" id="6ec48983" name="square"><path fill="none" stroke="none"/><g><path fill="rgb(0,15,20)" stroke="none" paint-order="stroke fill markers" d=" M 15160.831385281384 6661.408742629219 L 15380.431385281385 6661.408742629219 L 15380.431385281385 6805.40874262922 L 15160.831385281384 6805.40874262922 L 15160.831385281384 6661.408742629219" fill-opacity="0.6"/></g></g><g transform="translate(-14233.581385281377,-6363.725324675323)" id="348b262" name="image"><path fill="none" stroke="none"/><g><image width="219.6000000000004" height="24.000000000000043" preserveAspectRatio="none" transform="translate(15160.831385281384, 6818.275324675322)" xlink:href="https://assets.le5lecdn.com/v/material/标题/小标题背景2.png"/></g></g><g transform="translate(-14233.581385281377,-6363.725324675323)" id="3517186" name="combine"><path fill="none" stroke="none"/></g><g transform="translate(-14233.581385281377,-6363.725324675323)" id="f4c47fe" name="square"><path fill="none" stroke="none"/><g><path fill="rgb(0,15,20)" stroke="none" paint-order="stroke fill markers" d=" M 15160.831385281384 6855.533524206587 L 15380.431385281385 6855.533524206587 L 15380.431385281385 6999.533524206588 L 15160.831385281384 6999.533524206588 L 15160.831385281384 6855.533524206587" fill-opacity="0.6"/></g></g><g transform="translate(-14233.581385281377,-6363.725324675323)" id="5f40a73" name="square"><path fill="none" stroke="none"/><g><path fill="rgb(0,15,20)" stroke="none" paint-order="stroke fill markers" d=" M 15160.831385281384 6855.517125144062 L 15380.431385281385 6855.517125144062 L 15380.431385281385 6999.517125144063 L 15160.831385281384 6999.517125144063 L 15160.831385281384 6855.517125144062" fill-opacity="0.6"/></g></g><g transform="translate(-14233.581385281377,-6363.725324675323)" id="40430416" name="image"><path fill="none" stroke="none"/><g><image width="95.40000000000018" height="48.000000000000085" preserveAspectRatio="none" transform="translate(15169.898051948046, 6486.234415584413)" xlink:href="https://assets.le5lecdn.com/v/material/装饰/模块背景（橙色）.svg"/></g></g><g transform="translate(-14233.581385281377,-6363.725324675323)" id="b6bd9a3" name="image"><path fill="none" stroke="none"/><g><image width="95.40000000000018" height="48.000000000000085" preserveAspectRatio="none" transform="translate(15275.298051948052, 6486.234415584413)" xlink:href="https://assets.le5lecdn.com/v/material/装饰/模块背景（橙色）.svg"/></g><g><text fill="#bdc7db" stroke="none" font-family="&quot;Hiragino Sans GB&quot;, &quot;Microsoft YaHei&quot;, &quot;Helvetica Neue&quot;, Helvetica, Arial " font-size="7.200000000000001px" font-style="normal" font-weight="normal" text-decoration="normal" x="15322.998051948052" y="6510.774415584413" text-anchor="start" dominant-baseline="central"></text></g></g><g transform="translate(-14233.581385281377,-6363.725324675323)" id="011282" name="image"><path fill="none" stroke="none"/><g><image width="95.40000000000018" height="48.000000000000085" preserveAspectRatio="none" transform="translate(15169.898051948046, 6547.198051948049)" xlink:href="https://assets.le5lecdn.com/v/material/装饰/模块背景（青色）.svg"/></g></g><g transform="translate(-14233.581385281377,-6363.725324675323)" id="32f12399" name="image"><path fill="none" stroke="none"/><g><image width="95.40000000000018" height="48.000000000000085" preserveAspectRatio="none" transform="translate(15275.298051948052, 6547.198051948049)" xlink:href="https://assets.le5lecdn.com/v/material/装饰/模块背景（青色）.svg"/></g></g></g></svg>