<?xml version="1.0" encoding="UTF-8"?>
<svg width="48px" height="48px" viewBox="0 0 48 48" version="1.1" xmlns="http://www.w3.org/2000/svg" xmlns:xlink="http://www.w3.org/1999/xlink">
    <title>icon_安全演练</title>
    <defs>
        <polygon id="path-1" points="0 0 48 0 48 48 0 48"></polygon>
    </defs>
    <g id="大屏可视化-案例" stroke="none" stroke-width="1" fill="none" fill-rule="evenodd">
        <g id="智慧楼宇" transform="translate(-1721.000000, -300.000000)">
            <g id="编组-13备份-17" transform="translate(1514.000000, 104.000000)">
                <g id="编组-22备份-2" transform="translate(191.000000, 180.000000)">
                    <g id="icon_安全演练" transform="translate(16.000000, 16.000000)">
                        <mask id="mask-2" fill="white">
                            <use xlink:href="#path-1"></use>
                        </mask>
                        <use id="矩形" fill-opacity="0.08" fill="#33EAFF" fill-rule="nonzero" xlink:href="#path-1"></use>
                        <g id="边缘装饰线" mask="url(#mask-2)">
                            <path d="M38.4,0 L48,0 L48,9.6 M48,38.4 L48,48 L38.4,48 M9.6,48 L0,48 L0,38.4 M0,9.6 L0,0 L9.6,0" id="形状" stroke="#33EAFF" stroke-width="2" opacity="0.300000012" fill-rule="nonzero"></path>
                            <g id="矩形-2" fill="#33EAFF">
                                <rect id="矩形" x="0" y="0" width="2" height="2"></rect>
                                <rect id="矩形" x="46" y="0" width="2" height="2"></rect>
                                <rect id="矩形" x="0" y="46" width="2" height="2"></rect>
                                <rect id="矩形" x="46" y="46" width="2" height="2"></rect>
                            </g>
                        </g>
                        <g id="编组" mask="url(#mask-2)">
                            <g transform="translate(8.000000, 8.000000)">
                                <polygon id="Fill-1" fill="none" points="0 32 32 32 32 0 0 0"></polygon>
                                <path d="M13.8498,8.8756 C15.7158,8.8756 17.5838,9.2996 19.2898,10.1456 C20.0118,10.5056 20.7858,10.6816 21.5558,10.6816 C22.6258,10.6816 23.6858,10.3416 24.5838,9.6736 L24.5838,9.6736 L27.7798,13.9756 C25.9358,15.3456 23.7558,16.0436 21.5598,16.0436 C21.1158,16.0436 20.6698,16.0076 20.2278,15.9496 L20.2278,15.9496 L17.9518,19.8916 C20.8978,21.8056 23.2598,24.4596 24.8258,27.6236 L24.8258,27.6236 L20.0198,29.9996 C18.7718,27.4756 16.8238,25.3956 14.3838,23.9876 L14.3838,23.9876 L12.8858,23.1236 C12.2198,23.5176 11.5158,23.8556 10.7478,24.0636 C10.0058,24.2596 9.2538,24.3596 8.5078,24.3596 C7.0158,24.3596 5.5458,23.9676 4.2218,23.2016 L4.2218,23.2016 L6.9018,18.5616 C7.3998,18.8496 7.9558,18.9976 8.5158,18.9976 C8.7978,18.9976 9.0798,18.9596 9.3598,18.8836 C10.1958,18.6616 10.8938,18.1256 11.3278,17.3756 L11.3278,17.3756 L13.0918,14.3196 C13.0378,14.3076 12.9758,14.3016 12.9058,14.3016 C12.3698,14.3016 11.3818,14.6456 10.7238,14.9816 L10.7238,14.9816 L9.4518,15.6296 L7.0158,10.8576 L8.2878,10.2076 C10.0258,9.3196 11.9378,8.8756 13.8498,8.8756 Z M13.8498,10.8756 C12.4238,10.8756 11.0058,11.1736 9.7138,11.7436 L9.7138,11.7436 L10.3318,12.9596 C10.9538,12.6896 12.0078,12.3016 12.9058,12.3016 C13.1338,12.3016 13.3498,12.3256 13.5538,12.3736 L13.5538,12.3736 L16.1658,12.9936 L14.8238,15.3196 L13.0598,18.3756 C12.3578,19.5876 11.2278,20.4556 9.8758,20.8156 C9.4338,20.9356 8.9758,20.9976 8.5158,20.9976 C8.2878,20.9976 8.0578,20.9816 7.8298,20.9516 L7.8298,20.9516 L7.1058,22.2056 C7.5658,22.3076 8.0358,22.3596 8.5078,22.3596 C9.0798,22.3596 9.6598,22.2816 10.2338,22.1296 C10.7378,21.9956 11.2578,21.7636 11.8698,21.4016 L11.8698,21.4016 L12.8738,20.8096 L13.8858,21.3916 L15.3838,22.2536 C17.5838,23.5256 19.4338,25.2736 20.8158,27.3756 L20.8158,27.3756 L22.0438,26.7676 C20.7038,24.6936 18.9398,22.9176 16.8618,21.5676 L16.8618,21.5676 L15.2718,20.5336 L16.2198,18.8916 L18.4958,14.9496 L19.1618,13.7956 L20.4858,13.9676 C20.8838,14.0196 21.2358,14.0436 21.5598,14.0436 C22.6998,14.0436 23.8098,13.8156 24.8418,13.3756 L24.8418,13.3756 L24.0018,12.2456 C23.2258,12.5336 22.4018,12.6816 21.5558,12.6816 C20.4698,12.6816 19.3758,12.4236 18.3958,11.9336 C17.0018,11.2436 15.4278,10.8756 13.8498,10.8756 Z M20.3336,2.0002 C22.3076,2.0002 23.9076,3.6002 23.9076,5.5722 C23.9076,7.5462 22.3076,9.1462 20.3336,9.1462 C18.3596,9.1462 16.7596,7.5462 16.7596,5.5722 C16.7596,3.6002 18.3596,2.0002 20.3336,2.0002 Z M20.3336,4.0002 C19.4656,4.0002 18.7596,4.7062 18.7596,5.5722 C18.7596,6.4402 19.4656,7.1462 20.3336,7.1462 C21.2016,7.1462 21.9076,6.4402 21.9076,5.5722 C21.9076,4.7062 21.2016,4.0002 20.3336,4.0002 Z" id="形状结合" fill="#33EAFF" fill-rule="evenodd"></path>
                            </g>
                        </g>
                    </g>
                </g>
            </g>
        </g>
    </g>
</svg>