<?xml version="1.0" encoding="UTF-8"?>
<svg width="48px" height="48px" viewBox="0 0 48 48" version="1.1" xmlns="http://www.w3.org/2000/svg" xmlns:xlink="http://www.w3.org/1999/xlink">
    <title>icon_监控大屏</title>
    <defs>
        <polygon id="path-1" points="0 0 48 0 48 48 0 48"></polygon>
    </defs>
    <g id="大屏可视化-案例" stroke="none" stroke-width="1" fill="none" fill-rule="evenodd">
        <g id="智慧楼宇" transform="translate(-247.000000, -300.000000)">
            <g id="编组-13备份-16" transform="translate(40.000000, 104.000000)">
                <g id="编组-22备份-2" transform="translate(191.000000, 180.000000)">
                    <g id="icon_监控大屏" transform="translate(16.000000, 16.000000)">
                        <mask id="mask-2" fill="white">
                            <use xlink:href="#path-1"></use>
                        </mask>
                        <use id="矩形" fill-opacity="0.08" fill="#33EAFF" fill-rule="nonzero" xlink:href="#path-1"></use>
                        <g id="边缘装饰线" mask="url(#mask-2)">
                            <path d="M38.4,0 L48,0 L48,9.6 M48,38.4 L48,48 L38.4,48 M9.6,48 L0,48 L0,38.4 M0,9.6 L0,0 L9.6,0" id="形状" stroke="#33EAFF" stroke-width="2" opacity="0.300000012" fill-rule="nonzero"></path>
                            <g id="矩形-2" fill="#33EAFF">
                                <rect id="矩形" x="0" y="0" width="2" height="2"></rect>
                                <rect id="矩形" x="46" y="0" width="2" height="2"></rect>
                                <rect id="矩形" x="0" y="46" width="2" height="2"></rect>
                                <rect id="矩形" x="46" y="46" width="2" height="2"></rect>
                            </g>
                        </g>
                        <g id="编组" mask="url(#mask-2)">
                            <g transform="translate(8.000000, 8.000000)">
                                <polygon id="Fill-1" fill="none" points="0 32 32 32 32 0 0 0"></polygon>
                                <path d="M8.18,27.904 L24.18,27.904 L24.18,25.904 L8.18,25.904 L8.18,27.904 Z M30.18,3.904 L30.18,23.91 L2.182,23.91 L2.182,3.904 L30.18,3.904 Z M28.182,5.906 L4.182,5.906 L4.182,21.912 L28.182,21.912 L28.182,5.906 Z M13,13.742 L13,18.532 L11,18.532 L11,13.742 L13,13.742 Z M17,10.532 L17,18.532 L15,18.532 L15,10.532 L17,10.532 Z M20.998,13.742 L20.998,18.532 L18.998,18.532 L18.998,13.742 L20.998,13.742 Z" id="形状结合" fill="#33EAFF" fill-rule="evenodd"></path>
                            </g>
                        </g>
                    </g>
                </g>
            </g>
        </g>
    </g>
</svg>