<svg id="图层_1" data-name="图层 1" xmlns="http://www.w3.org/2000/svg" xmlns:xlink="http://www.w3.org/1999/xlink"
    viewBox="0 0 3184.79 2663.1">
    <defs>
        <style>
            .cls-1,
            .cls-11,
            .cls-3,
            .cls-7 {
                fill: none;
            }

            .cls-2 {
                clip-path: url(#clip-path);
            }

            .cls-3,
            .cls-4 {
                stroke: gray;
                stroke-linecap: round;
                stroke-linejoin: round;
                stroke-width: 6px;
                fill: #fff;
            }


            .cls-10,
            .cls-11,
            .cls-12,
            .cls-5,
            .cls-7,
            .cls-8 {
                isolation: isolate;
            }

            .cls-10,
            .cls-11,
            .cls-5,
            .cls-7,
            .cls-8 {
                font-size: 52px;
            }

            .cls-5,
            .cls-7,
            .cls-8 {
                font-family: ArialMT, Arial;
            }

            .cls-10,
            .cls-11,
            .cls-12,
            .cls-6 {
                font-family: AdobeSongStd-Light-GBpc-EUC-H, Adobe Song Std;
            }

            .cls-11,
            .cls-7 {
                stroke: #999;
                stroke-miterlimit: 10;
            }

            .cls-8 {
                fill: #ff8500;
            }

            .cls-9 {
                letter-spacing: -0.07em;
            }

            .cls-12 {
                font-size: 150px;
            }
        </style>
        <clipPath id="clip-path" transform="translate(-563.1 -169.9)">
            <rect class="cls-1" x="-422" y="-31" width="5443" height="3061" />
        </clipPath>
    </defs>
    <g class="cls-2">
        <path class="cls-3" d="M1829.7,979.4" transform="translate(-563.1 -169.9)" />
        <path class="cls-3" d="M2299.4,979.4" transform="translate(-563.1 -169.9)" />
        <path class="cls-3" d="M1662.2,979.4" transform="translate(-563.1 -169.9)" />
        <path class="cls-3" d="M1558.5,1013.2" transform="translate(-563.1 -169.9)" />
        <path class="cls-3" d="M1662.2,979.4" transform="translate(-563.1 -169.9)" />
        <path class="cls-3" d="M1521,1040.4" transform="translate(-563.1 -169.9)" />
        <path class="cls-3" d="M1558.5,1013.2" transform="translate(-563.1 -169.9)" />
        <path class="cls-3" d="M1466.2,964.9" transform="translate(-563.1 -169.9)" />
        <path class="cls-3" d="M1521,1040.4" transform="translate(-563.1 -169.9)" />
        <path class="cls-3" d="M1466.2,964.9" transform="translate(-563.1 -169.9)" />
        <path class="cls-3" d="M1324.6,1884.6" transform="translate(-563.1 -169.9)" />
        <path class="cls-3" d="M1410.9,1840.7" transform="translate(-563.1 -169.9)" />
        <path class="cls-3" d="M1403.6,1988.8" transform="translate(-563.1 -169.9)" />
        <path class="cls-3" d="M1325.4,1881.1" transform="translate(-563.1 -169.9)" />
        <path class="cls-3" d="M1466.2,2034.2" transform="translate(-563.1 -169.9)" />
        <path class="cls-3" d="M1403.6,1988.8" transform="translate(-563.1 -169.9)" />
        <path class="cls-3" d="M1521,1958.8" transform="translate(-563.1 -169.9)" />
        <path class="cls-3" d="M1466.2,2034.2" transform="translate(-563.1 -169.9)" />
        <path class="cls-3" d="M1521,1958.8" transform="translate(-563.1 -169.9)" />
        <path class="cls-3" d="M1829.7,2019.7" transform="translate(-563.1 -169.9)" />
        <path class="cls-3" d="M1662.2,2019.7" transform="translate(-563.1 -169.9)" />
        <path class="cls-3" d="M2299.4,2019.7" transform="translate(-563.1 -169.9)" />
        <path class="cls-3" d="M1829.7,2019.7" transform="translate(-563.1 -169.9)" />
        <path class="cls-3" d="M1498.6,995.6" transform="translate(-563.1 -169.9)" />
        <path class="cls-3" d="M1656.8,945.2" transform="translate(-563.1 -169.9)" />
        <path class="cls-3" d="M3090.9,1017.7" transform="translate(-563.1 -169.9)" />
        <path class="cls-3" d="M1627.8,971.2" transform="translate(-563.1 -169.9)" />
        <path class="cls-3" d="M1629,978.8" transform="translate(-563.1 -169.9)" />
        <path class="cls-3" d="M1659.2,2038.1" transform="translate(-563.1 -169.9)" />
        <path class="cls-3" d="M1627.8,2028" transform="translate(-563.1 -169.9)" />
        <path class="cls-3" d="M1660.4,2030.5" transform="translate(-563.1 -169.9)" />
        <path class="cls-3" d="M1629,2020.3" transform="translate(-563.1 -169.9)" />
        <path class="cls-3" d="M1484.9,976.8" transform="translate(-563.1 -169.9)" />
        <path class="cls-3" d="M1471.2,958" transform="translate(-563.1 -169.9)" />
        <path class="cls-3" d="M1639.5,2162.3" transform="translate(-563.1 -169.9)" />
        <path class="cls-3" d="M1478.3,981.6" transform="translate(-563.1 -169.9)" />
        <path class="cls-3" d="M1519.2,1038" transform="translate(-563.1 -169.9)" />
        <path class="cls-3" d="M1557.2,1010.4" transform="translate(-563.1 -169.9)" />
        <path class="cls-3" d="M1661.7,976.4" transform="translate(-563.1 -169.9)" />
        <path class="cls-3" d="M1829.7,976.4" transform="translate(-563.1 -169.9)" />
        <path class="cls-3" d="M2299.5,976.4" transform="translate(-563.1 -169.9)" />
        <path class="cls-3" d="M1408.5,1841.9" transform="translate(-563.1 -169.9)" />
        <path class="cls-3" d="M1409.7,1841.3" transform="translate(-563.1 -169.9)" />
        <path class="cls-3" d="M1372.4,1730.3" transform="translate(-563.1 -169.9)" />
        <path class="cls-3" d="M1372.4,1675.8" transform="translate(-563.1 -169.9)" />
        <polyline id="_101区" data-name="101区" class="cls-4"
            points="433.9 1514.1 808.9 1514.1 809.3 1329.6 808.9 1145.1 433.9 1145.3" /><text class="cls-5"
            transform="translate(586.9 1330.1)">101<tspan class="cls-6" x="86.76" y="0">区</tspan></text><text
            class="cls-7" transform="translate(586.9 1330.1)">101<tspan class="cls-6" x="86.76" y="0">区</tspan>
            </text><text id="_101区-text" data-name="101区-text" class="cls-8"
            transform="translate(586.9 1390.1)">000</text>
        <path class="cls-3" d="M1372.4,1323.4" transform="translate(-563.1 -169.9)" />
        <line class="cls-3" x1="847.8" y1="988.6" x2="843" y2="995.3" />
        <path class="cls-3" d="M1197.5,813.5" transform="translate(-563.1 -169.9)" />
        <path class="cls-3" d="M1901.6,603.7" transform="translate(-563.1 -169.9)" />
        <path class="cls-3" d="M2084.6,603.7" transform="translate(-563.1 -169.9)" />
        <path class="cls-3" d="M2085.9,603.7" transform="translate(-563.1 -169.9)" />
        <path class="cls-3" d="M1900.1,627" transform="translate(-563.1 -169.9)" />
        <path class="cls-3" d="M1607.4,634.7" transform="translate(-563.1 -169.9)" />
        <path class="cls-3" d="M2258.8,2395.4H2340" transform="translate(-563.1 -169.9)" />
        <path class="cls-3" d="M3104.7,998.9" transform="translate(-563.1 -169.9)" />
        <path class="cls-3" d="M2939.7,2038.1" transform="translate(-563.1 -169.9)" />
        <path class="cls-3" d="M2971,2028" transform="translate(-563.1 -169.9)" />
        <path class="cls-3" d="M2938.5,2030.5" transform="translate(-563.1 -169.9)" />
        <path class="cls-3" d="M2969.8,2020.3" transform="translate(-563.1 -169.9)" />
        <path class="cls-3" d="M3118.4,980" transform="translate(-563.1 -169.9)" />
        <path class="cls-3" d="M3337.8,1315.2" transform="translate(-563.1 -169.9)" />
        <path class="cls-3" d="M3337.8,1282.7" transform="translate(-563.1 -169.9)" />
        <path class="cls-3" d="M3132.4,2047.8" transform="translate(-563.1 -169.9)" />
        <path class="cls-3" d="M3158.8,2028.7" transform="translate(-563.1 -169.9)" />
        <path class="cls-3" d="M3314.6,1315.2" transform="translate(-563.1 -169.9)" />
        <path class="cls-3" d="M3338.9,1084.6" transform="translate(-563.1 -169.9)" />
        <path class="cls-3" d="M3250.5,962.9" transform="translate(-563.1 -169.9)" />
        <path class="cls-3" d="M3132,961.1" transform="translate(-563.1 -169.9)" />
        <path class="cls-3" d="M3077.2,1036.6" transform="translate(-563.1 -169.9)" />
        <path class="cls-3" d="M3041.6,1010.6" transform="translate(-563.1 -169.9)" />
        <path class="cls-3" d="M2937.2,976.8" transform="translate(-563.1 -169.9)" />
        <path class="cls-3" d="M2769.2,976.8" transform="translate(-563.1 -169.9)" />
        <path class="cls-3" d="M2299.5,976.8" transform="translate(-563.1 -169.9)" />
        <path class="cls-3" d="M3255.6,1866l40.4-124.9" transform="translate(-563.1 -169.9)" />
        <line class="cls-3" x1="2733" y1="1505.7" x2="3038.9" y2="1506.1" />
        <path class="cls-3" d="M3296.1,1741.1" transform="translate(-563.1 -169.9)" />
        <path class="cls-3" d="M3233.8,979.6" transform="translate(-563.1 -169.9)" />
        <path class="cls-3" d="M3263.9,941.6" transform="translate(-563.1 -169.9)" />
        <path class="cls-3" d="M3337,1944" transform="translate(-563.1 -169.9)" />
        <path class="cls-3" d="M3330.2,1940.5" transform="translate(-563.1 -169.9)" />
        <path class="cls-3" d="M3351.2,1951.2" transform="translate(-563.1 -169.9)" />
        <path class="cls-3" d="M3398.4,1938.7" transform="translate(-563.1 -169.9)" />
        <path class="cls-3" d="M3419.4,1949.5" transform="translate(-563.1 -169.9)" />
        <path class="cls-3" d="M3412.6,1946" transform="translate(-563.1 -169.9)" />
        <path class="cls-3" d="M3330.6,874.9" transform="translate(-563.1 -169.9)" />
        <path class="cls-3" d="M3440.4,1960.2" transform="translate(-563.1 -169.9)" />
        <path class="cls-3" d="M3433.6,1956.7" transform="translate(-563.1 -169.9)" />
        <path class="cls-3" d="M3454.7,1031.8" transform="translate(-563.1 -169.9)" />
        <path class="cls-3" d="M2769.2,650.4" transform="translate(-563.1 -169.9)" />
        <path class="cls-3" d="M3463.2,990.8" transform="translate(-563.1 -169.9)" />
        <path class="cls-3" d="M2697.3,603.7" transform="translate(-563.1 -169.9)" />
        <path class="cls-3" d="M2514.3,603.7" transform="translate(-563.1 -169.9)" />
        <path class="cls-3" d="M2769.2,627" transform="translate(-563.1 -169.9)" />
        <path class="cls-3" d="M2698.7,627" transform="translate(-563.1 -169.9)" />
        <path class="cls-3" d="M3484.2,980.2" transform="translate(-563.1 -169.9)" />
        <path class="cls-3" d="M3484.2,2019" transform="translate(-563.1 -169.9)" />
        <path class="cls-3" d="M3477.4,983.6" transform="translate(-563.1 -169.9)" />
        <path class="cls-3" d="M2216.3,603.7h166.2" transform="translate(-563.1 -169.9)" />
        <path class="cls-3" d="M2513,611.3" transform="translate(-563.1 -169.9)" />
        <path class="cls-3" d="M2513,619" transform="translate(-563.1 -169.9)" />
        <path class="cls-3" d="M2480.4,619" transform="translate(-563.1 -169.9)" />
        <path class="cls-3" d="M3531.4,992.6" transform="translate(-563.1 -169.9)" />
        <path class="cls-3" d="M3454.7,1031.8" transform="translate(-563.1 -169.9)" />
        <path class="cls-3" d="M3512.1,966" transform="translate(-563.1 -169.9)" />
        <path class="cls-3" d="M3601.8,1315.2" transform="translate(-563.1 -169.9)" />
        <path class="cls-3" d="M3307,1315.2" transform="translate(-563.1 -169.9)" />
        <path class="cls-3" d="M3601.8,1274.5" transform="translate(-563.1 -169.9)" />
        <path class="cls-3" d="M3531.4,2006.5" transform="translate(-563.1 -169.9)" />
        <path class="cls-3" d="M3426.3,1953" transform="translate(-563.1 -169.9)" />
        <path class="cls-3" d="M3405.3,1942.3" transform="translate(-563.1 -169.9)" />
        <path class="cls-3" d="M3512.1,2033.2" transform="translate(-563.1 -169.9)" />
        <path class="cls-3" d="M3330.2,1940.5" transform="translate(-563.1 -169.9)" />
        <path class="cls-3" d="M3292.1,2267.5" transform="translate(-563.1 -169.9)" />
        <path class="cls-3" d="M3318.4,2248.4" transform="translate(-563.1 -169.9)" />
        <path class="cls-3" d="M3158.8,2028.7" transform="translate(-563.1 -169.9)" />
        <path class="cls-3" d="M2938.5,2030.5" transform="translate(-563.1 -169.9)" />
        <path class="cls-3" d="M2992.6,2372.2" transform="translate(-563.1 -169.9)" />
        <path class="cls-3" d="M2996.2,2395.4" transform="translate(-563.1 -169.9)" />
        <path class="cls-3" d="M2969.8,2020.3" transform="translate(-563.1 -169.9)" />
        <path class="cls-3" d="M3043.2,2380.2" transform="translate(-563.1 -169.9)" />
        <path class="cls-3" d="M2731.2,2395.4" transform="translate(-563.1 -169.9)" />
        <path class="cls-3" d="M2698.7,2395.4" transform="translate(-563.1 -169.9)" />
        <path class="cls-3" d="M997,1315.2" transform="translate(-563.1 -169.9)" />
        <path class="cls-3" d="M997,1274.5" transform="translate(-563.1 -169.9)" />
        <path class="cls-3" d="M997,1684" transform="translate(-563.1 -169.9)" />
        <path class="cls-3" d="M1015.3,1739" transform="translate(-563.1 -169.9)" />
        <path class="cls-3" d="M997,1724.5" transform="translate(-563.1 -169.9)" />
        <path class="cls-3" d="M1067.4,2006.5" transform="translate(-563.1 -169.9)" />
        <path class="cls-3" d="M1102.1,1988.9" transform="translate(-563.1 -169.9)" />
        <path class="cls-3" d="M1306.7,2267.5" transform="translate(-563.1 -169.9)" />
        <path class="cls-3" d="M1457.4,2060" transform="translate(-563.1 -169.9)" />
        <path class="cls-3" d="M1280.4,2248.4" transform="translate(-563.1 -169.9)" />
        <path class="cls-3" d="M1431.2,2041" transform="translate(-563.1 -169.9)" />
        <path class="cls-3" d="M1602.6,2395.4" transform="translate(-563.1 -169.9)" />
        <path class="cls-3" d="M1629,2020.3" transform="translate(-563.1 -169.9)" />
        <path class="cls-3" d="M3292.1,731.6" transform="translate(-563.1 -169.9)" />
        <path class="cls-3" d="M3132.4,951.4" transform="translate(-563.1 -169.9)" />
        <path class="cls-3" d="M3318.4,750.7" transform="translate(-563.1 -169.9)" />
        <path class="cls-3" d="M3304.7,769.6" transform="translate(-563.1 -169.9)" />
        <path class="cls-3" d="M2996.2,603.7" transform="translate(-563.1 -169.9)" />
        <path class="cls-3" d="M3043.2,619" transform="translate(-563.1 -169.9)" />
        <path class="cls-3" d="M2480.4,603.7" transform="translate(-563.1 -169.9)" />
        <path class="cls-3" d="M2513,603.7" transform="translate(-563.1 -169.9)" />
        <path class="cls-3" d="M1280.4,750.7" transform="translate(-563.1 -169.9)" />
        <path class="cls-3" d="M1606.2,627" transform="translate(-563.1 -169.9)" />
        <path class="cls-3" d="M1602.6,603.7" transform="translate(-563.1 -169.9)" />
        <path class="cls-3" d="M1629,978.8" transform="translate(-563.1 -169.9)" />
        <path class="cls-3" d="M1574.9,637.2" transform="translate(-563.1 -169.9)" />
        <path class="cls-3" d="M1555.6,619" transform="translate(-563.1 -169.9)" />
        <path class="cls-3" d="M999.4,1323.4" transform="translate(-563.1 -169.9)" />
        <path class="cls-3" d="M999.4,1499.5" transform="translate(-563.1 -169.9)" />
        <path class="cls-3" d="M2299.5,576.4" transform="translate(-563.1 -169.9)" />
        <path class="cls-3" d="M2769.2,576.4" transform="translate(-563.1 -169.9)" />
        <path class="cls-3" d="M3000.5,576.4" transform="translate(-563.1 -169.9)" />
        <path class="cls-3" d="M3517.7,938.8" transform="translate(-563.1 -169.9)" />
        <path class="cls-3" d="M3560.6,1037.4" transform="translate(-563.1 -169.9)" />
        <path class="cls-3" d="M3512.3,942.7" transform="translate(-563.1 -169.9)" />
        <path class="cls-3" d="M3363.8,766.7" transform="translate(-563.1 -169.9)" />
        <path class="cls-3" d="M3237.5,626.3" transform="translate(-563.1 -169.9)" />
        <path class="cls-3" d="M3435.5,770.2" transform="translate(-563.1 -169.9)" />
        <path class="cls-3" d="M3383,740.3" transform="translate(-563.1 -169.9)" />
        <path class="cls-3" d="M3379,745.8" transform="translate(-563.1 -169.9)" />
        <path class="cls-3" d="M3674,1285.4" transform="translate(-563.1 -169.9)" />
        <path class="cls-3" d="M995.3,1499.5" transform="translate(-563.1 -169.9)" />
        <path class="cls-3" d="M3072.8,2385.1" transform="translate(-563.1 -169.9)" />
        <path class="cls-3" d="M3398.6,2192.1l-184.9,134.3" transform="translate(-563.1 -169.9)" />
        <path class="cls-3" d="M3532.9,2007.3" transform="translate(-563.1 -169.9)" />
        <path class="cls-3" d="M3603.5,1790" transform="translate(-563.1 -169.9)" />
        <path class="cls-3" d="M3603.5,1675.8" transform="translate(-563.1 -169.9)" />
        <path class="cls-3" d="M3603.5,1499.5" transform="translate(-563.1 -169.9)" />
        <path class="cls-3" d="M3453.3,2137.6" transform="translate(-563.1 -169.9)" />
        <path class="cls-3" d="M3363.8,2232.5" transform="translate(-563.1 -169.9)" />
        <path class="cls-3" d="M3560.6,1037.4" transform="translate(-563.1 -169.9)" />
        <path class="cls-3" d="M3512.3,942.7" transform="translate(-563.1 -169.9)" />
        <path class="cls-3" d="M3574.1,935.6" transform="translate(-563.1 -169.9)" />
        <path class="cls-3" d="M3363.8,766.7" transform="translate(-563.1 -169.9)" />
        <path class="cls-3" d="M3386.9,734.9" transform="translate(-563.1 -169.9)" />
        <path class="cls-3" d="M3145,637.6" transform="translate(-563.1 -169.9)" />
        <path class="cls-3" d="M995.3,1323.4" transform="translate(-563.1 -169.9)" />
        <path class="cls-3" d="M995.3,1499.5" transform="translate(-563.1 -169.9)" />
        <path class="cls-3" d="M999.4,1323.4" transform="translate(-563.1 -169.9)" />
        <path class="cls-3" d="M1095.4,2080.2" transform="translate(-563.1 -169.9)" />
        <path class="cls-3" d="M1154.3,2161.3" transform="translate(-563.1 -169.9)" />
        <path class="cls-3" d="M1007.3,1866.4" transform="translate(-563.1 -169.9)" />
        <path class="cls-3" d="M995.3,1499.5" transform="translate(-563.1 -169.9)" />
        <path class="cls-3" d="M1074.5,2095.3" transform="translate(-563.1 -169.9)" />
        <path class="cls-3" d="M1007.3,1866.4" transform="translate(-563.1 -169.9)" />
        <path class="cls-3" d="M1100.9,2076.2" transform="translate(-563.1 -169.9)" />
        <path class="cls-3" d="M3718.7,2246.6" transform="translate(-563.1 -169.9)" />
        <path class="cls-3" d="M3606.9,2400.5" transform="translate(-563.1 -169.9)" />
        <path class="cls-3" d="M3401.4,2644.1" transform="translate(-563.1 -169.9)" />
        <path class="cls-3" d="M3249.8,2741.9" transform="translate(-563.1 -169.9)" />
        <path class="cls-3" d="M3060.9,2803.2" transform="translate(-563.1 -169.9)" />
        <path class="cls-3" d="M2299.5,2803.2" transform="translate(-563.1 -169.9)" />
        <path class="cls-3" d="M3455.5,2249" transform="translate(-563.1 -169.9)" />
        <path class="cls-3" d="M3250.3,2398.2" transform="translate(-563.1 -169.9)" />
        <path class="cls-3" d="M3009,2476.6" transform="translate(-563.1 -169.9)" />
        <path class="cls-3" d="M2299.5,2476.6" transform="translate(-563.1 -169.9)" />
        <path class="cls-3" d="M3149.3,2445.2" transform="translate(-563.1 -169.9)" />
        <path class="cls-3" d="M3118.5,2455.3" transform="translate(-563.1 -169.9)" />
        <path class="cls-3" d="M3347.8,2344.2" transform="translate(-563.1 -169.9)" />
        <path class="cls-3" d="M3718.7,752.5" transform="translate(-563.1 -169.9)" />
        <path class="cls-3" d="M3606.9,598.7" transform="translate(-563.1 -169.9)" />
        <path class="cls-3" d="M3249.8,257.3" transform="translate(-563.1 -169.9)" />
        <path class="cls-3" d="M2299.4,196" transform="translate(-563.1 -169.9)" />
        <path class="cls-3" d="M3547.6,876.8" transform="translate(-563.1 -169.9)" />
        <path class="cls-3" d="M3455.6,750.1" transform="translate(-563.1 -169.9)" />
        <path class="cls-3" d="M3588.2,847.3" transform="translate(-563.1 -169.9)" />
        <path class="cls-3" d="M3273.4,555.7" transform="translate(-563.1 -169.9)" />
        <path class="cls-3" d="M3569.6,860.9" transform="translate(-563.1 -169.9)" />
        <path class="cls-3" d="M3149.3,553.9" transform="translate(-563.1 -169.9)" />
        <path class="cls-3" d="M3118.5,543.8" transform="translate(-563.1 -169.9)" />
        <path class="cls-3" d="M3374.1,674.2" transform="translate(-563.1 -169.9)" />
        <path class="cls-3" d="M3347.8,655" transform="translate(-563.1 -169.9)" />
        <path class="cls-3" d="M3531.5,831.6" transform="translate(-563.1 -169.9)" />
        <path class="cls-3" d="M3583,794.2" transform="translate(-563.1 -169.9)" />
        <path class="cls-3" d="M3677.1,782.8" transform="translate(-563.1 -169.9)" />
        <path class="cls-3" d="M3374.1,674.2" transform="translate(-563.1 -169.9)" />
        <path class="cls-3" d="M915.8,1802.6" transform="translate(-563.1 -169.9)" />
        <path class="cls-3" d="M1041.8,2194.6" transform="translate(-563.1 -169.9)" />
        <path class="cls-3" d="M1045.7,2200.1" transform="translate(-563.1 -169.9)" />
        <path class="cls-3" d="M816.9,1062.4" transform="translate(-563.1 -169.9)" />
        <path class="cls-3" d="M823.4,1064.5" transform="translate(-563.1 -169.9)" />
        <path class="cls-3" d="M794.9,1055.3" transform="translate(-563.1 -169.9)" />
        <path class="cls-3" d="M801.4,1057.3" transform="translate(-563.1 -169.9)" />
        <path class="cls-3" d="M902.1,1001.8" transform="translate(-563.1 -169.9)" />
        <path class="cls-3" d="M788.6,1053.1" transform="translate(-563.1 -169.9)" />
        <path class="cls-3" d="M898.1,1088.8" transform="translate(-563.1 -169.9)" />
        <path class="cls-3" d="M611.2,1002.5" transform="translate(-563.1 -169.9)" />
        <path class="cls-3" d="M1067.3,831.6" transform="translate(-563.1 -169.9)" />
        <path class="cls-3" d="M1260.3,603.1" transform="translate(-563.1 -169.9)" />
        <path class="cls-3" d="M1265.8,599" transform="translate(-563.1 -169.9)" />
        <path class="cls-3" d="M1271.2,595.1" transform="translate(-563.1 -169.9)" />
        <path class="cls-3" d="M1494.6,2000.6" transform="translate(-563.1 -169.9)" />
        <path class="cls-3" d="M1481,2019.5" transform="translate(-563.1 -169.9)" />
        <path class="cls-3" d="M3547.6,2122.3" transform="translate(-563.1 -169.9)" />
        <path class="cls-3" d="M3728.3,2253.6" transform="translate(-563.1 -169.9)" />
        <path class="cls-3" d="M3510.5,2553.4" transform="translate(-563.1 -169.9)" />
        <path class="cls-3" d="M3587.2,2153.2" transform="translate(-563.1 -169.9)" />
        <path class="cls-3" d="M3676.1,2217.7" transform="translate(-563.1 -169.9)" />
        <path class="cls-3" d="M3587.2,846" transform="translate(-563.1 -169.9)" />
        <path class="cls-3" d="M3676.1,781.4" transform="translate(-563.1 -169.9)" />
        <path class="cls-3" d="M1198.4,812.4" transform="translate(-563.1 -169.9)" />
        <path class="cls-3" d="M1198.6,2187.1" transform="translate(-563.1 -169.9)" />
        <polyline id="_106区" data-name="106区" class="cls-4"
            points="1520.1 433.8 1524.1 809.1 1336.9 806.5 1336.9 434.1" /><text class="cls-5"
            transform="translate(1386.9 620.1)">106<tspan class="cls-6" x="86.76" y="0">区</tspan></text><text
            class="cls-7" transform="translate(1386.9 620.1)">106<tspan class="cls-6" x="86.76" y="0">区</tspan>
            </text><text id="_106区-text" data-name="106区-text" class="cls-8"
            transform="translate(1386.9 680.1)">000</text>
        <polyline id="_105区" data-name="105区" class="cls-4"
            points="1301.9 433.8 1301.9 809.1 1096.9 806.5 1036.9 434.1" /><text class="cls-5"
            transform="translate(1136.9 620.1)">105<tspan class="cls-6" x="86.76" y="0">区</tspan></text><text
            class="cls-7" transform="translate(1136.9 620.1)">105<tspan class="cls-6" x="86.76" y="0">区</tspan>
            </text><text id="_105区-text" data-name="105区-text" class="cls-8"
            transform="translate(1136.9 680.1)">000</text>
        <path id="disabled" class="cls-3" d="M997,1323.4" transform="translate(-563.1 -169.9)" />
        <path class="cls-3" d="M1093.6,2029.7" transform="translate(-563.1 -169.9)" />
        <path class="cls-3" d="M1100.4,2026.2" transform="translate(-563.1 -169.9)" />
        <path class="cls-3" d="M1004.6,1724.5" transform="translate(-563.1 -169.9)" />
        <path class="cls-3" d="M1004.6,1684" transform="translate(-563.1 -169.9)" />
        <path class="cls-3" d="M1004.6,1315.2" transform="translate(-563.1 -169.9)" />
        <path class="cls-3" d="M3400.7,2186.5" transform="translate(-563.1 -169.9)" />
        <path class="cls-3" d="M3402.3,814.9" transform="translate(-563.1 -169.9)" />
        <path class="cls-3" d="M3510.5,2035.4l1.6-2.3" transform="translate(-563.1 -169.9)" />
        <path class="cls-3" d="M3470.9,2015.3" transform="translate(-563.1 -169.9)" />
        <path class="cls-3" d="M3213,2325l184.4-134,4.8-6.6" transform="translate(-563.1 -169.9)" />
        <path class="cls-3" d="M3314,2242.3" transform="translate(-563.1 -169.9)" />
        <path class="cls-3" d="M3041.6,1988.5l35.6-25.9L3132,2031l155.7,230.4" transform="translate(-563.1 -169.9)" />
        <path class="cls-3" d="M3330.2,1940.5" transform="translate(-563.1 -169.9)" />
        <polyline class="cls-3"
            points="2949 1863.3 2766.9 1771.1 2687.4 1866.5 2637.3 1816.3 2594.2 1849.8 2644.8 1921.7 2755.3 2078.5" />
        <polyline class="cls-3" points="2755.3 580.8 2594.2 809.5 2643.9 856.1 2686.9 793.1 2755.3 886.4 2949 796.1" />
        <path class="cls-3" d="M3594.3,1684" transform="translate(-563.1 -169.9)" />
        <path class="cls-3" d="M3594.3,1274.5" transform="translate(-563.1 -169.9)" />
        <path class="cls-3" d="M3505.2,969.5" transform="translate(-563.1 -169.9)" />
        <path class="cls-3" d="M3287.7,737.8" transform="translate(-563.1 -169.9)" />
        <path class="cls-3" d="M3042.1,2372.5l-72-352.5" transform="translate(-563.1 -169.9)" />
        <path class="cls-3" d="M3603.5,1675.8V1501h77.3" transform="translate(-563.1 -169.9)" />
        <path class="cls-3" d="M3296,1741l2.8-22.8h304l.7-42.4" transform="translate(-563.1 -169.9)" />
        <path class="cls-3" d="M3680.3,1803.6l-77.3-12.2" transform="translate(-563.1 -169.9)" />
        <path class="cls-3" d="M3602.8,1718.2l.7,70.4-70.2,217.5,68.5,37.9,79-243.2-77.3-12.2"
            transform="translate(-563.1 -169.9)" />
        <path class="cls-3"
            d="M3248,2396.5l100.36-69.6,24.84-17.5,49,54,21.2-17,51.7,56.6-21.2,18,78,85,35.5-13.4c77.1-29,156.78-127.53,157.49-194.47.18-17.45-17-44.13-17-44.13l-51.8-36.3-16.92,28.7-62.12-38.05,19.76-34.75-69.22-51.3,54.2-78.3-69.7-35.5"
            transform="translate(-563.1 -169.9)" />
        <path class="cls-3" d="M3452.8,2248.3l-55.3-55.3" transform="translate(-563.1 -169.9)" />
        <path class="cls-3" d="M3373.2,2309.4l81.5-63-55.3-55.3L3513.14,2034l20.16-27.85-194.3-91"
            transform="translate(-563.1 -169.9)" />
        <path class="cls-3" d="M2997.8,2396.6" transform="translate(-563.1 -169.9)" />
        <path class="cls-3" d="M3010,2473.9" transform="translate(-563.1 -169.9)" />
        <polyline class="cls-3" points="2432.3 2227.1 2373.9 1851.1 2167.9 1861.1 2167.9 2225.1" />
        <polygon class="cls-3"
            points="2444.3 2304.4 2684.9 2226.6 2651.7 2155.7 2478.9 2202.6 2432.3 2227.1 2444.3 2304.4" />
        <path class="cls-3" d="M2937.2,2022.4" transform="translate(-563.1 -169.9)" />
        <path class="cls-3" d="M2769.2,2022.4" transform="translate(-563.1 -169.9)" />
        <path class="cls-3" d="M2767.8,2474.3V2397" transform="translate(-563.1 -169.9)" />
        <path class="cls-3" d="M2897.9,2474.3V2397" transform="translate(-563.1 -169.9)" />
        <path class="cls-3" d="M2900.7,2474.3V2397H2770.5v77.3Z" transform="translate(-563.1 -169.9)" />
        <path class="cls-3" d="M2770.5,2474.3V2397H2611.2v77.3Z" transform="translate(-563.1 -169.9)" />
        <path class="cls-3" d="M2457.4,2474.3V2397" transform="translate(-563.1 -169.9)" />
        <path class="cls-3" d="M2613.9,2474.3V2397" transform="translate(-563.1 -169.9)" />
        <path class="cls-3" d="M2611.2,2474.3v0Z" transform="translate(-563.1 -169.9)" />
        <path class="cls-3" d="M2144.2,2397" transform="translate(-563.1 -169.9)" />
        <path class="cls-3" d="M2144.2,2474.3" transform="translate(-563.1 -169.9)" />
        <path class="cls-3" d="M2300.8,2397" transform="translate(-563.1 -169.9)" />
        <path class="cls-3" d="M2300.8,2474.3" transform="translate(-563.1 -169.9)" />
        <path class="cls-3" d="M2298,2474.3" transform="translate(-563.1 -169.9)" />
        <path class="cls-3" d="M2141.4,2474.3" transform="translate(-563.1 -169.9)" />
        <path class="cls-3" d="M1985,2397" transform="translate(-563.1 -169.9)" />
        <path class="cls-3" d="M1985,2474.3" transform="translate(-563.1 -169.9)" />
        <path class="cls-3" d="M1828.4,2397" transform="translate(-563.1 -169.9)" />
        <path class="cls-3" d="M1828.4,2474.3" transform="translate(-563.1 -169.9)" />
        <path class="cls-3" d="M1831,2397" transform="translate(-563.1 -169.9)" />
        <path class="cls-3" d="M1831,2474.3" transform="translate(-563.1 -169.9)" />
        <path id="_321区" data-name="321区" class="cls-4"
            d="M1489.1,2441.4l-32.3,88.6,28.2,10.3-25.5,69.5-28.2-10.3-64.2,174.6,20,8.2a589.41,589.41,0,0,0,277.9,41.1h0v-186h-29v-74h29l-.1-85.5"
            transform="translate(-563.1 -169.9)" />
        <line id="_121区" data-name="121区" class="cls-4" x1="1297.3" y1="2228.5" x2="1295.3" y2="1849.8" />
        <polyline id="_121区-2" data-name="121区" class="cls-4" points="1295.3 1849.8 1099.1 1849.8 1040.6 2227.1" /><text
            class="cls-5" transform="translate(1136.9 2014.1)">121<tspan class="cls-6" x="86.76" y="0">区</tspan>
            </text><text class="cls-7" transform="translate(1136.9 2014.1)">121<tspan class="cls-6" x="86.76" y="0">区
            </tspan></text><text id="_121区-text" data-name="121区-text" class="cls-8"
            transform="translate(1136.9 2074.1)">000</text>
        <polyline id="_122区" data-name="122区" class="cls-4"
            points="1001.5 2212.1 1064.5 1832.1 957.5 1790.5 740.6 2097.1" /><text class="cls-5"
            transform="translate(876.9 2004.1)">122<tspan class="cls-6" x="86.76" y="0">区</tspan></text><text
            class="cls-7" transform="translate(876.9 2004.1)">122<tspan class="cls-6" x="86.76" y="0">区</tspan>
            </text><text id="_122区-text" data-name="122区-text" class="cls-8"
            transform="translate(876.9 2064.1)">000</text>
        <polyline id="_123区" data-name="123区" class="cls-4"
            points="722.5 2080.1 881.5 1850.1 831.5 1818.1 774.6 1732.5 527.6 1864.1" /><text class="cls-5"
            transform="translate(666.9 1870.1)">123<tspan class="cls-6" x="86.76" y="0">区</tspan></text><text
            class="cls-7" transform="translate(666.9 1870.1)">123<tspan class="cls-6" x="86.76" y="0">区</tspan>
            </text><text id="_123区-text" data-name="123区-text" class="cls-8"
            transform="translate(666.9 1930.1)">000</text>
        <polyline id="_124区" data-name="124区" class="cls-4"
            points="503.6 1832.1 847.5 1670.1 812.5 1553.1 433.9 1551.1" /><text class="cls-5"
            transform="translate(586.9 1650.1)">124<tspan class="cls-6" x="86.76" y="0">区</tspan></text><text
            class="cls-7" transform="translate(586.9 1650.1)">124<tspan class="cls-6" x="86.76" y="0">区</tspan>
            </text><text id="_124区-text" data-name="124区-text" class="cls-8"
            transform="translate(586.9 1710.1)">000</text>
        <path class="cls-3" d="M1557.3,1988.5" transform="translate(-563.1 -169.9)" />
        <path class="cls-3" d="M1471.1,2435.6l23.9-73.4" transform="translate(-563.1 -169.9)" />
        <polyline id="包厢V11" class="cls-4" points="785.4 2225.4 905.4 2264.9 929.3 2191.5 820.9 2155.7 785.4 2225.4" />
        <path class="cls-3" d="M1350.9,2396.5l35.5-69.6" transform="translate(-563.1 -169.9)" />
        <polyline class="cls-3" points="683 2151.1 728.4 2088.6 685.2 2152.7 581 2076.5" />
        <path id="_322区" data-name="322区" class="cls-4"
            d="M1265.8,2335.3l-56.5,76.6,23.6,18.5-45.6,58.3-23.6-18.5-110.1,141.7h0A359.45,359.45,0,0,0,1292,2754.3l34.9,5,64-174.6-27.2-10,25.5-69.5,27.2,10,36.4-85.6-97.3-30.6"
            transform="translate(-563.1 -169.9)" />
        <polyline class="cls-3" points="685.2 2152.7 785.4 2225.4 820.9 2155.7 785.4 2225.4" />
        <path class="cls-3" d="M1146,2248.3l55.3-55.3" transform="translate(-563.1 -169.9)" />
        <path class="cls-3" d="M1248.3,2322.6" transform="translate(-563.1 -169.9)" />
        <path class="cls-3" d="M1069.7,2144l62.5-45.4" transform="translate(-563.1 -169.9)" />
        <path id="_323区" data-name="323区" class="cls-4"
            d="M1083.4,2162.8l-78.5,51,16.9,24.8-61.1,41.8-16.9-24.8L790.1,2360.5l2.9,4a1011.52,1011.52,0,0,0,218.5,221.1h0l118.4-141.9-22.8-17.9,45.6-58.3,22.8,17.9,56.3-74.9"
            transform="translate(-563.1 -169.9)" />
        <polyline class="cls-3" points="508.3 1976.3 581 2076.5 636.3 2021.2 581 2076.5" />
        <path id="包厢V16" class="cls-4" d="M995.8,2041.6" transform="translate(-563.1 -169.9)" />
        <polyline id="包厢V16-2" data-name="包厢V16" class="cls-4"
            points="432.7 1871.7 508.3 1976.3 570.8 1930.9 502.4 1836.1" />
        <polyline class="cls-4" points="432.2 1618.7 503.6 1838.6 432.7 1871.7 354.9 1630.9 432.2 1618.7" />
        <path class="cls-3" d="M997,2044" transform="translate(-563.1 -169.9)" />
        <polyline class="cls-4"
            points="398.1 1771.6 322.7 1812.1 336.9 1838.6 271.7 1873.5 257.5 1847.1 82.8 1933.6 140.1 2039.3 202.9 2155.1 356.5 2050.2 340.1 2026.2 401.2 1984.5 417.5 2008.4 494.3 1956.93" />
        <path class="cls-3" d="M995.8,1791.4" transform="translate(-563.1 -169.9)" />
        <path class="cls-3" d="M918.5,1803.6" transform="translate(-563.1 -169.9)" />
        <path class="cls-3" d="M956.7,1921.2" transform="translate(-563.1 -169.9)" />
        <path id="包厢V18" class="cls-4" d="M918,1800.8" transform="translate(-563.1 -169.9)" />
        <polyline id="_325区" data-name="325区" class="cls-4"
            points="344.7 1480.7 259.2 1480.8 259.2 1510.8 185.2 1510.8 185.2 1480.8 3 1480.7 38.1 1688.8 73.3 1897 237.2 1809.2 223.5 1783.6 288.8 1748.7 302.5 1774.2 388.5 1735.4" />
        <path id="_325区-2" data-name="325区" class="cls-4" d="M995.3,1788.6" transform="translate(-563.1 -169.9)" />
        <path id="_325区-3" data-name="325区" class="cls-4" d="M909.4,1674.5" transform="translate(-563.1 -169.9)" />
        <path class="cls-3" d="M995.3,1677.1" transform="translate(-563.1 -169.9)" />
        <path class="cls-3" d="M995.3,1501" transform="translate(-563.1 -169.9)" />
        <path class="cls-3" d="M995.3,1674.5" transform="translate(-563.1 -169.9)" />
        <path class="cls-3" d="M918,1674.5" transform="translate(-563.1 -169.9)" />
        <path class="cls-3" d="M995.3,1501" transform="translate(-563.1 -169.9)" />
        <polyline id="_301区" data-name="301区" class="cls-4"
            points="344.7 1228.7 259.2 1228.8 259.2 1258.8 185.2 1258.8 185.2 1228.8 3 1228.7 3 1329.6 3 1437.8 185.2 1437.8 185.2 1408.8 259.2 1408.8 259.2 1437.8 344.7 1437.8" />
        <polyline class="cls-3" points="3117.7 1028.4 3040.4 1040.6 2970.2 823.2" />
        <path class="cls-3" d="M3680.3,1195.6" transform="translate(-563.1 -169.9)" />
        <path class="cls-3" d="M3601.8,955.2l-69.7,35.5" transform="translate(-563.1 -169.9)" />
        <polyline class="cls-3" points="2694.9 1697.3 2691.7 1701.7 2775.8 1744.7" />
        <path class="cls-3"
            d="M3402.2,814.9l131.1,178.2L3335,1084l-80.2,43.4,3.2,4.4,40.8,125.8v16.9h303v40.7l-303-9.6v370"
            transform="translate(-563.1 -169.9)" />
        <path class="cls-3" d="M3604.7,955.3,3458.4,747.1l-56.2,67.8L3214.8,673.6"
            transform="translate(-563.1 -169.9)" />
        <path class="cls-3" d="M3248,602.6l-35.5,69.6" transform="translate(-563.1 -169.9)" />
        <path class="cls-3" d="M3007.4,524.9l-12.2,77.3" transform="translate(-563.1 -169.9)" />
        <polyline class="cls-3" points="2687.3 433.9 2651.7 503.7 2434.7 432.6" />
        <path class="cls-3" d="M2897.9,524.9v77.3" transform="translate(-563.1 -169.9)" />
        <path class="cls-3" d="M2937,979" transform="translate(-563.1 -169.9)" />
        <polyline class="cls-3" points="2207.4 355 2337.6 355 2337.6 432.3 2207.4 432.3 2207.4 355" />
        <path class="cls-3" d="M2767.8,524.9v77.3" transform="translate(-563.1 -169.9)" />
        <polyline class="cls-3" points="2207.4 355 2207.4 432.3 2048.1 432.3" />
        <path class="cls-3" d="M2613.9,524.9v77.3" transform="translate(-563.1 -169.9)" />
        <polyline id="包厢V39" class="cls-4" points="1894.3 432.3 2048.1 432.3 2048.1 355 1894.3 348.6 1894.3 432.3" />
        <path class="cls-3" d="M2454.6,602.2" transform="translate(-563.1 -169.9)" />
        <path class="cls-3" d="M2454.6,524.9" transform="translate(-563.1 -169.9)" />
        <path class="cls-3" d="M2300.8,524.9v77.3" transform="translate(-563.1 -169.9)" />
        <polyline id="包厢V38" class="cls-4" points="1894.3 348.6 1736.3 348.6 1734.9 432.3 1894.3 432.3 1894.3 355" />
        <path class="cls-3" d="M2457.4,524.9" transform="translate(-563.1 -169.9)" />
        <polyline id="包厢V36" class="cls-4" points="1578.3 432.3 1421.9 432.3 1421.9 355 1578.3 355 1578.3 432.3" />
        <path class="cls-3"
            d="M3680.8,1800.8l2.3-301.2V1196.5l-78.4-241.2L3544,874l-85.6-126.9L3252.1,597.2l-99.3-33.1,28.1-80.8,27.4,9.6,24.4-69.9-27.4-9.6,60.5-147.3h0a440,440,0,0,1,251.9,185.2l25,38.8L3454,564l-17-22-59,49,16,22-56.2,46.4"
            transform="translate(-563.1 -169.9)" />
        <path class="cls-3" d="M3728.3,745.6l-66.4,46.2-27-31.7-72,53,24.2,33-36.2,28.4"
            transform="translate(-563.1 -169.9)" />
        <path class="cls-3" d="M3009.8,518.5" transform="translate(-563.1 -169.9)" />
        <path id="_309区" data-name="309区" class="cls-4"
            d="M2320.1,518.5,2320,433h29V359h-29V173h272.2l-.2,188h-30v74h30l.2,85.5"
            transform="translate(-563.1 -169.9)" />
        <path class="cls-3" d="M2144.2,524.9v77.3" transform="translate(-563.1 -169.9)" />
        <polygon id="包厢V37" class="cls-4" points="1734.9 432.3 1578.3 432.3 1578.3 355 1736.3 348.6 1734.9 432.3" />
        <path class="cls-3" d="M1831,602.2" transform="translate(-563.1 -169.9)" />
        <path class="cls-3" d="M1831,524.9" transform="translate(-563.1 -169.9)" />
        <path class="cls-3" d="M1828.4,602.2V524.9" transform="translate(-563.1 -169.9)" />
        <path id="包厢V33" class="cls-4" d="M1828.4,602.2,1696.1,601l2.1-76h130.2v77.2h0"
            transform="translate(-563.1 -169.9)" />
        <path class="cls-3" d="M1698.2,524.9" transform="translate(-563.1 -169.9)" />
        <path class="cls-3" d="M1828.4,602.2" transform="translate(-563.1 -169.9)" />
        <path class="cls-3" d="M1591.5,524.9l12.2,77.3" transform="translate(-563.1 -169.9)" />
        <path class="cls-3" d="M1557.3,1010.6" transform="translate(-563.1 -169.9)" />
        <polyline id="_306区" data-name="306区" class="cls-4"
            points="929 380.11 900.15 303.49 927.44 293.67 902.38 224.04 875.09 233.86 812.11 58.85 1103.06 3.01 1102.9 189.1 1072.9 189.1 1072.9 263.1 1102.9 263.1 1103.07 351.62" />
        <path class="cls-3" d="M1246.1,678.1l45.4,62.5" transform="translate(-563.1 -169.9)" />
        <polyline id="包厢V31" class="cls-4"
            points="908.02 383.62 1025.74 355.34 1037.98 432.62 929.26 467.9 908.02 383.62" />
        <path class="cls-3" d="M1350.9,602.6l35.5,69.6" transform="translate(-563.1 -169.9)" />
        <polyline id="_305区" data-name="305区" class="cls-4"
            points="699.58 496.21 641.12 419.13 664.24 401.62 619.57 342.62 596.45 360.13 481.67 219.49" />
        <polyline id="_305区-2" data-name="305区" class="cls-4"
            points="481.67 219.49 771.78 73.29 834.62 248.44 806.39 258.6 831.45 328.23 859.68 318.07 889.86 394.64" />
        <polyline id="包厢V30" class="cls-4"
            points="785.38 433.94 820.9 503.66 929.26 467.9 908.02 383.62 785.38 433.94" />
        <path class="cls-3" d="M1144.1,752.8l55.3,55.3" transform="translate(-563.1 -169.9)" />
        <path id="包厢V29" class="cls-4" d="M1384,673.6l-35.5-69.7-100.2,72.7,45.5,62.5Z"
            transform="translate(-563.1 -169.9)" />
        <path class="cls-3" d="M1201.4,806.2" transform="translate(-563.1 -169.9)" />
        <path class="cls-3" d="M1146,750.8" transform="translate(-563.1 -169.9)" />
        <path class="cls-3" d="M1071.4,853l62.5,45.4" transform="translate(-563.1 -169.9)" />
        <path id="_303区" data-name="303区" class="cls-4" d="M968.2,1042.8" transform="translate(-563.1 -169.9)" />
        <path id="_303区-2" data-name="303区" class="cls-4"
            d="M968.2,1042.8l-90.7-32.9,9.9-27.3-69.6-25.3-9.9,27.3L633.8,930l.1-.4A862.09,862.09,0,0,1,764.5,676.3h0l156.7,99.2-16.8,24.9,61.3,41.4,16.8-24.9,74.6,55.4"
            transform="translate(-563.1 -169.9)" />
        <polyline class="cls-3" points="506.6 685.2 433.9 785.3 503.6 820.8 433.9 785.3" />
        <path id="包厢V27" class="cls-3" d="M1201.4,806.2l-55.3-55.3-76.3,104.3,62.5,45.4Z"
            transform="translate(-563.1 -169.9)" />
        <polyline id="_102区" data-name="102区" class="cls-4"
            points="503.62 820.82 847.1 989.7 809.3 1115.3 433.9 1104.6" /><text class="cls-5"
            transform="translate(586.9 990.1)">102<tspan class="cls-6" x="86.76" y="0">区</tspan></text><text
            class="cls-7" transform="translate(586.9 990.1)">102<tspan class="cls-6" x="86.76" y="0">区</tspan>
            </text><text id="_102区-text" data-name="102区-text" class="cls-8"
            transform="translate(586.9 1050.1)">000</text>
        <polyline id="_103区" data-name="103区" class="cls-4" points="716.9 580.7 877.1 810.7 777.3 920.3 523.9 798.6" />
        <text class="cls-5" transform="translate(666.9 750.1)">103<tspan class="cls-6" x="86.76" y="0">区</tspan>
            </text><text class="cls-7" transform="translate(666.9 750.1)">103<tspan class="cls-6" x="86.76" y="0">区
            </tspan></text><text id="_103区-text" data-name="103区-text" class="cls-8"
            transform="translate(666.9 810.1)">000</text>
        <path id="_104区" data-name="104区" class="cls-4" d="M1555,618.6" transform="translate(-563.1 -169.9)" />
        <polyline id="_104区-2" data-name="104区" class="cls-4"
            points="991.9 448.7 1067.1 805.7 954.3 863.3 747.9 560.6" /><text class="cls-5"
            transform="translate(886.9 660.1)">104<tspan class="cls-6" x="86.76" y="0">区</tspan></text><text
            class="cls-7" transform="translate(886.9 660.1)">104<tspan class="cls-6" x="86.76" y="0">区</tspan>
            </text><text id="_119区-text" data-name="119区-text" class="cls-8"
            transform="translate(886.9 720.1)">000</text>
        <path class="cls-3" d="M956.7,1078l73.6,23.8" transform="translate(-563.1 -169.9)" />
        <polyline id="包厢V25" class="cls-4" points="433.9 785.3 394.4 905.4 468 929.3 503.6 820.8 433.9 785.3" />
        <path class="cls-3" d="M918.5,1195.6l77.3,12.2" transform="translate(-563.1 -169.9)" />
        <polyline id="包厢V23" class="cls-4"
            points="354.9 1028.4 432.2 1040.7 354.9 1028.4 354.9 1028.4 432.2 1040.7 468 929.3 394.4 905.4 354.9 1028.4" />
        <path class="cls-3" d="M995.3,1322" transform="translate(-563.1 -169.9)" />
        <path class="cls-3" d="M2495.3,2467.6" transform="translate(-563.1 -169.9)" />
        <path class="cls-3" d="M2729.8,2409.2" transform="translate(-563.1 -169.9)" />
        <path class="cls-3" d="M2705.4,2409.2" transform="translate(-563.1 -169.9)" />
        <path class="cls-3" d="M2905.5,2422.8" transform="translate(-563.1 -169.9)" />
        <path class="cls-3" d="M2905.5,2448.6" transform="translate(-563.1 -169.9)" />
        <path class="cls-3" d="M1772.8,2409.2" transform="translate(-563.1 -169.9)" />
        <path class="cls-3" d="M1748.3,2409.2" transform="translate(-563.1 -169.9)" />
        <path class="cls-3" d="M1693.4,2416.1" transform="translate(-563.1 -169.9)" />
        <path class="cls-3" d="M1693.4,2441.8" transform="translate(-563.1 -169.9)" />
        <path class="cls-3" d="M1693.4,2435" transform="translate(-563.1 -169.9)" />
        <path class="cls-3" d="M1693.4,2435" transform="translate(-563.1 -169.9)" />
        <path class="cls-3" d="M1693.4,2409.2" transform="translate(-563.1 -169.9)" />
        <path class="cls-3" d="M1668.9,2409.2" transform="translate(-563.1 -169.9)" />
        <path class="cls-3" d="M2016,472.3" transform="translate(-563.1 -169.9)" />
        <path class="cls-3" d="M2009.3,472.3" transform="translate(-563.1 -169.9)" />
        <path class="cls-3" d="M1963.2,472.3" transform="translate(-563.1 -169.9)" />
        <path class="cls-3" d="M1970,485.9" transform="translate(-563.1 -169.9)" />
        <path class="cls-3" d="M2002.5,508.9" transform="translate(-563.1 -169.9)" />
        <path class="cls-3" d="M2002.5,218.9" transform="translate(-563.1 -169.9)" />
        <path class="cls-3" d="M1704.4,2490.1" transform="translate(-563.1 -169.9)" />
        <path class="cls-3" d="M2283.2,508.9" transform="translate(-563.1 -169.9)" />
        <path class="cls-3" d="M2315.7,2490.1" transform="translate(-563.1 -169.9)" />
        <path class="cls-3" d="M3510.5,2553.3" transform="translate(-563.1 -169.9)" />
        <path class="cls-3" d="M3077.7,2790.4" transform="translate(-563.1 -169.9)" />
        <path class="cls-3" d="M2513,968.6" transform="translate(-563.1 -169.9)" />
        <path class="cls-3" d="M2480.4,968.6" transform="translate(-563.1 -169.9)" />
        <path class="cls-3" d="M2480.4,968.6" transform="translate(-563.1 -169.9)" />
        <path class="cls-3" d="M2513,968.6" transform="translate(-563.1 -169.9)" />
        <path class="cls-3" d="M2731.2,634.7" transform="translate(-563.1 -169.9)" />
        <path class="cls-3" d="M2698.7,634.7" transform="translate(-563.1 -169.9)" />
        <path class="cls-3" d="M2731.2,611.3" transform="translate(-563.1 -169.9)" />
        <path class="cls-3" d="M2698.7,611.3" transform="translate(-563.1 -169.9)" />
        <path class="cls-3" d="M2698.7,619" transform="translate(-563.1 -169.9)" />
        <path class="cls-3" d="M2698.7,627" transform="translate(-563.1 -169.9)" />
        <path class="cls-3" d="M2731.2,627" transform="translate(-563.1 -169.9)" />
        <path class="cls-3" d="M2731.2,603.7" transform="translate(-563.1 -169.9)" />
        <path class="cls-3" d="M2731.2,968.6" transform="translate(-563.1 -169.9)" />
        <path class="cls-3" d="M2698.7,968.6" transform="translate(-563.1 -169.9)" />
        <path class="cls-3" d="M2698.7,968.6" transform="translate(-563.1 -169.9)" />
        <path class="cls-3" d="M2731.2,968.6" transform="translate(-563.1 -169.9)" />
        <path class="cls-3" d="M2118.4,611.3" transform="translate(-563.1 -169.9)" />
        <path class="cls-3" d="M2085.9,611.3" transform="translate(-563.1 -169.9)" />
        <path class="cls-3" d="M2085.9,968.6" transform="translate(-563.1 -169.9)" />
        <path class="cls-3" d="M2118.4,968.6" transform="translate(-563.1 -169.9)" />
        <path class="cls-3" d="M1900.1,611.3" transform="translate(-563.1 -169.9)" />
        <path class="cls-3" d="M1900.1,619" transform="translate(-563.1 -169.9)" />
        <path class="cls-3" d="M1867.6,619" transform="translate(-563.1 -169.9)" />
        <path class="cls-3" d="M1867.6,627" transform="translate(-563.1 -169.9)" />
        <path class="cls-3" d="M1867.6,603.7" transform="translate(-563.1 -169.9)" />
        <path class="cls-3" d="M1900.1,603.7" transform="translate(-563.1 -169.9)" />
        <path class="cls-3" d="M1900.1,961.1" transform="translate(-563.1 -169.9)" />
        <path class="cls-3" d="M1867.6,961.1" transform="translate(-563.1 -169.9)" />
        <path class="cls-3" d="M1867.6,968.6" transform="translate(-563.1 -169.9)" />
        <path class="cls-3" d="M2340,2418.7" transform="translate(-563.1 -169.9)" />
        <path class="cls-3" d="M2698.7,2030.5v15.2" transform="translate(-563.1 -169.9)" />
        <path class="cls-3" d="M2731.2,2030.5" transform="translate(-563.1 -169.9)" />
        <path class="cls-3" d="M2513,2387.9" transform="translate(-563.1 -169.9)" />
        <path class="cls-3" d="M2513,2030.5" transform="translate(-563.1 -169.9)" />
        <path class="cls-3" d="M2480.4,2030.5" transform="translate(-563.1 -169.9)" />
        <path class="cls-3" d="M2118.4,2387.9" transform="translate(-563.1 -169.9)" />
        <path class="cls-3" d="M2118.4,2038.1" transform="translate(-563.1 -169.9)" />
        <path class="cls-3" d="M1900.1,2387.9" transform="translate(-563.1 -169.9)" />
        <path class="cls-3" d="M1900.1,2038.1" transform="translate(-563.1 -169.9)" />
        <path class="cls-3" d="M3132.6,964.9" transform="translate(-563.1 -169.9)" />
        <polyline class="cls-3" points="2480.1 449.1 2408.9 824.1 2479.9 841.1 2514.7 870.5 2569.9 799.1 2729 561.7" />
        <path class="cls-3" d="M2936.7,979.4" transform="translate(-563.1 -169.9)" />
        <path class="cls-3" d="M2769.2,979.4" transform="translate(-563.1 -169.9)" />
        <path class="cls-3" d="M2299.5,979.4" transform="translate(-563.1 -169.9)" />
        <path class="cls-3" d="M3547.6,2122.3" transform="translate(-563.1 -169.9)" />
        <path class="cls-3" d="M3596,2160" transform="translate(-563.1 -169.9)" />
        <path class="cls-3" d="M3657.5,2199.3" transform="translate(-563.1 -169.9)" />
        <path class="cls-3" d="M3728.3,2253.6" transform="translate(-563.1 -169.9)" />
        <path class="cls-3" d="M3728.3,745.6" transform="translate(-563.1 -169.9)" />
        <path class="cls-3" d="M3728.3,2253.6" transform="translate(-563.1 -169.9)" />
        <path class="cls-3" d="M1829.7,978.1" transform="translate(-563.1 -169.9)" />
        <path class="cls-3" d="M2299.4,978.1" transform="translate(-563.1 -169.9)" />
        <path class="cls-3" d="M1521.3,1038.5" transform="translate(-563.1 -169.9)" />
        <path class="cls-3" d="M1557.9,1011.8" transform="translate(-563.1 -169.9)" />
        <path class="cls-3" d="M1323.8,1883.5" transform="translate(-563.1 -169.9)" />
        <path class="cls-3" d="M1402.6,1989.7" transform="translate(-563.1 -169.9)" />
        <path class="cls-3" d="M1521.3,1960.7" transform="translate(-563.1 -169.9)" />
        <path class="cls-3" d="M1466.4,2036.2" transform="translate(-563.1 -169.9)" />
        <path class="cls-3" d="M1557.9,1987.2" transform="translate(-563.1 -169.9)" />
        <path class="cls-3" d="M1521.3,1960.7" transform="translate(-563.1 -169.9)" />
        <path class="cls-3" d="M1661.7,976.8" transform="translate(-563.1 -169.9)" />
        <path class="cls-3" d="M1829.7,976.8" transform="translate(-563.1 -169.9)" />
        <path class="cls-3" d="M1466.8,961.1" transform="translate(-563.1 -169.9)" />
        <path class="cls-3" d="M1348.4,962.9" transform="translate(-563.1 -169.9)" />
        <path class="cls-3" d="M1401.6,1990.7" transform="translate(-563.1 -169.9)" />
        <path class="cls-3" d="M1521.6,1962.6" transform="translate(-563.1 -169.9)" />
        <path class="cls-3" d="M1557.3,1988.5" transform="translate(-563.1 -169.9)" />
        <path class="cls-3" d="M1521.6,1962.6" transform="translate(-563.1 -169.9)" />
        <path class="cls-3" d="M1829.7,2022.4" transform="translate(-563.1 -169.9)" />
        <path class="cls-3" d="M3305.6,1315.2" transform="translate(-563.1 -169.9)" />
        <path class="cls-3" d="M2938.5,2030.5" transform="translate(-563.1 -169.9)" />
        <path class="cls-3" d="M2969.8,2020.3" transform="translate(-563.1 -169.9)" />
        <path class="cls-3" d="M2698.7,2030.5" transform="translate(-563.1 -169.9)" />
        <path class="cls-3" d="M2937.2,2022.4" transform="translate(-563.1 -169.9)" />
        <path class="cls-3" d="M3041.6,1988.5" transform="translate(-563.1 -169.9)" />
        <path class="cls-3" d="M2299.4,2022.4" transform="translate(-563.1 -169.9)" />
        <path class="cls-3" d="M2769.2,2022.4" transform="translate(-563.1 -169.9)" />
        <path class="cls-3" d="M1277.7,1899.4" transform="translate(-563.1 -169.9)" />
    </g>
    <line class="cls-3" x1="717.3" y1="580.8" x2="880.9" y2="809.1" />
    <polyline id="_107区" data-name="107区" class="cls-4" points="1554.9 434.1 1554.9 809.5 1917.3 809.1 1917.3 433.8" />
    <text class="cls-5" transform="translate(1691.9 620.1)">107<tspan class="cls-6" x="86.76" y="0">区</tspan>
        </text><text class="cls-7" transform="translate(1691.9 620.1)">107<tspan class="cls-6" x="86.76" y="0">区</tspan>
        </text><text id="_107区-text" data-name="107区-text" class="cls-8" transform="translate(1691.9 680.1)">000</text>
    <polyline id="_108区" data-name="108区" class="cls-4" points="1946.9 434.1 1946.9 809.1 2134.2 809.5 2134.2 433.8" />
    <text class="cls-5" transform="translate(1991.9 620.1)">108<tspan class="cls-6" x="86.76" y="0">区</tspan>
        </text><text class="cls-7" transform="translate(1991.9 620.1)">108<tspan class="cls-6" x="86.76" y="0">区</tspan>
        </text><text id="_108区-text" data-name="108区-text" class="cls-8" transform="translate(1991.9 680.1)">000</text>
    <polyline class="cls-3" points="2434.7 432.6 2434.7 432.6 2373.9 809.1 2167.9 809.5 2167.9 434.1" />
    <polyline id="_120区" data-name="120区" class="cls-4"
        points="1524.1 2227.1 1524.1 1849.8 1334.2 1851.1 1334.2 2227.1" /><text class="cls-5"
        transform="translate(1386.9 2014.1)">120<tspan class="cls-6" x="86.76" y="0">区</tspan></text><text class="cls-7"
        transform="translate(1386.9 2014.1)">120<tspan class="cls-6" x="86.76" y="0">区</tspan></text><text
        id="_120区-text" data-name="120区-text" class="cls-8" transform="translate(1386.9 2074.1)">000</text>
    <polyline id="_119区" data-name="119区" class="cls-4"
        points="1916.3 2228.5 1915.9 1850.1 1554.9 1849.8 1554.9 2227.1" /><text class="cls-5"
        transform="translate(1691.9 2014.1)">
        <tspan class="cls-9">1</tspan>
        <tspan x="25.06" y="0">19</tspan>
        <tspan class="cls-6" x="82.9" y="0">区</tspan>
    </text><text class="cls-7" transform="translate(1691.9 2014.1)">
        <tspan class="cls-9">1</tspan>
        <tspan x="25.06" y="0">19</tspan>
        <tspan class="cls-6" x="82.9" y="0">区</tspan>
    </text><text id="_119区-text-2" data-name="119区-text" class="cls-8" transform="translate(1691.9 2074.1)">000</text>
    <polyline id="_118区" data-name="118区" class="cls-4"
        points="2135.6 2225.5 2135.9 1861.1 1950.9 1850.1 1951 2228.5" /><text class="cls-5"
        transform="translate(1991.9 2014.1)">
        <tspan class="cls-9">1</tspan>
        <tspan x="25.06" y="0">18</tspan>
        <tspan class="cls-6" x="82.9" y="0">区</tspan>
    </text><text class="cls-7" transform="translate(1991.9 2014.1)">
        <tspan class="cls-9">1</tspan>
        <tspan x="25.06" y="0">18</tspan>
        <tspan class="cls-6" x="82.9" y="0">区</tspan>
    </text><text id="_118区-text" data-name="118区-text" class="cls-8" transform="translate(1991.9 2074.1)">000</text>
    <line class="cls-3" x1="2478.9" y1="1819.1" x2="2406.9" y2="1850.1" /><text class="cls-5"
        transform="translate(1846.9 170.1)">309<tspan class="cls-6" x="86.76" y="0">区</tspan></text><text class="cls-7"
        transform="translate(1846.9 170.1)">309<tspan class="cls-6" x="86.76" y="0">区</tspan></text><text
        id="_309区-text" data-name="309区-text" class="cls-8" transform="translate(1846.9 230.1)">000</text>
    <polyline id="_308区" data-name="308区" class="cls-4"
        points="1443.8 348.6 1443.8 263.1 1472.8 263.1 1472.8 189.1 1443.8 189.1 1443.8 3.1 1578.2 3.1 1712.9 3 1712.8 189.1 1682.8 189.1 1682.8 263.1 1712.8 263.1 1712.9 348.6" />
    <text class="cls-5" transform="translate(1536.9 170.1)">308<tspan class="cls-6" x="86.76" y="0">区</tspan>
        </text><text class="cls-7" transform="translate(1536.9 170.1)">308<tspan class="cls-6" x="86.76" y="0">区</tspan>
        </text><text id="_308区-text" data-name="308区-text" class="cls-8" transform="translate(1536.9 230.1)">000</text>
    <polyline id="_310区" data-name="310区" class="cls-4"
        points="2072 348.6 2071.9 263.1 2100.9 263.1 2100.9 189.1 2071.9 189.1 2071.9 3.1 2193.3 3.1 2317.1 3 2316.9 189.1 2286.9 189.1 2286.9 263.1 2316.9 263.1 2317.1 348.6" />
    <text class="cls-5" transform="translate(2136.9 170.1)">310<tspan class="cls-6" x="86.76" y="0">区</tspan>
        </text><text class="cls-7" transform="translate(2136.9 170.1)">310<tspan class="cls-6" x="86.76" y="0">区</tspan>
        </text><text id="_310区-text" data-name="310区-text" class="cls-8" transform="translate(2136.9 230.1)">000</text>
    <path id="_311" data-name="311" class="cls-3"
        d="M3009.8,518.5h-86.7L2923,433h29V359h-29V173l54.2,6.6a894.29,894.29,0,0,1,196.3,46.9l59.3,21.4-68,151.3-28.3-9.9-24.4,69.9,28.3,9.9-28,80.8Z"
        transform="translate(-563.1 -169.9)" />
    <polyline id="_307区" data-name="307区" class="cls-4"
        points="1146 348.6 1145.9 263.1 1174.9 263.1 1174.9 189.1 1145.9 189.1 1145.9 3.1 1272.8 3.1 1402.1 3 1401.9 189.1 1371.9 189.1 1371.9 263.1 1401.9 263.1 1402.1 348.6" />
    <text class="cls-5" transform="translate(1226.9 170.1)">307<tspan class="cls-6" x="86.76" y="0">区</tspan>
        </text><text class="cls-7" transform="translate(1226.9 170.1)">307<tspan class="cls-6" x="86.76" y="0">区</tspan>
        </text><text id="_307区-text" data-name="307区-text" class="cls-8"
        transform="translate(1226.9 230.1)">000</text><text class="cls-5" transform="translate(126.9 1330.1)">301<tspan
            class="cls-6" x="86.76" y="0">区</tspan></text><text class="cls-7" transform="translate(126.9 1330.1)">301
        <tspan class="cls-6" x="86.76" y="0">区</tspan></text><text id="_301区-text" data-name="301区-text" class="cls-8"
        transform="translate(126.9 1390.1)">000</text><text class="cls-5" transform="translate(136.9 1620.1)">325<tspan
            class="cls-6" x="86.76" y="0">区</tspan></text><text class="cls-7" transform="translate(136.9 1620.1)">325
        <tspan class="cls-6" x="86.76" y="0">区</tspan></text><text id="_325区-text" data-name="325区-text" class="cls-8"
        transform="translate(136.9 1700.1)">000</text>
    <path class="cls-3" d="M3376.3,2406.5" transform="translate(-563.1 -169.9)" />
    <path class="cls-3" d="M3424.8,2459.3" transform="translate(-563.1 -169.9)" />
    <path class="cls-3"
        d="M3152.5,2430.5l28,80.8,28.4-9.8,24.1,70-28.4,9.8,61.3,151.4h0c119.5-.5,297.1-147.8,255.7-195.7l-74.19-92.6-22.61,29.5-48.6-67.3,20.39-26.6-48.23-53.1"
        transform="translate(-563.1 -169.9)" />
    <polyline id="_318区" data-name="318区" class="cls-4"
        points="1757.7 2308 1757.9 2393.5 1787.9 2393.5 1787.9 2467.5 1757.9 2467.5 1757.7 2653.6 2027.9 2653.5 2027.9 2467.5 1998.9 2467.5 1998.9 2393.5 2027.9 2393.5 2027.8 2308" />
    <text class="cls-5" transform="translate(1846.9 2469.1)">318<tspan class="cls-6" x="86.76" y="0">区</tspan>
        </text><text class="cls-7" transform="translate(1846.9 2469.1)">318<tspan class="cls-6" x="86.76" y="0">区
        </tspan></text><text id="_318区-text" data-name="318区-text" class="cls-8"
        transform="translate(1846.9 2529.1)">000</text>
    <polyline id="_317区" data-name="317区" class="cls-4"
        points="2070.7 2308 2070.9 2393.5 2100.9 2393.5 2100.9 2467.5 2070.9 2467.5 2070.7 2653.6 2315.9 2653.5 2315.9 2467.5 2286.9 2467.5 2286.9 2393.5 2315.9 2393.5 2315.8 2308" />
    <text class="cls-5" transform="translate(2136.9 2469.1)">317<tspan class="cls-6" x="86.76" y="0">区</tspan>
        </text><text class="cls-7" transform="translate(2136.9 2469.1)">317<tspan class="cls-6" x="86.76" y="0">区
        </tspan></text><text id="_317区-text" data-name="317区-text" class="cls-8"
        transform="translate(2136.9 2529.1)">000</text>
    <polyline id="_319区" data-name="319区" class="cls-4"
        points="1443.7 2308 1443.9 2393.5 1473.9 2393.5 1473.9 2467.5 1443.9 2467.5 1443.7 2653.6 1714.9 2653.5 1714.9 2467.5 1685.9 2467.5 1685.9 2393.5 1714.9 2393.5 1714.8 2308" />
    <text class="cls-5" transform="translate(1536.9 2469.1)">319<tspan class="cls-6" x="86.76" y="0">区</tspan>
        </text><text class="cls-7" transform="translate(1536.9 2469.1)">319<tspan class="cls-6" x="86.76" y="0">区
        </tspan></text><text id="_319区-text" data-name="319区-text" class="cls-8"
        transform="translate(1536.9 2529.1)">000</text>
    <polyline id="_320区" data-name="320区" class="cls-4"
        points="1144.7 2308 1144.9 2393.5 1174.9 2393.5 1174.9 2467.5 1144.9 2467.5 1144.7 2653.6 1400.9 2653.5 1400.9 2467.5 1371.9 2467.5 1371.9 2393.5 1400.9 2393.5 1400.8 2308" />
    <text class="cls-5" transform="translate(1228.9 2469.1)">320<tspan class="cls-6" x="86.76" y="0">区</tspan>
        </text><text class="cls-7" transform="translate(1228.9 2469.1)">320<tspan class="cls-6" x="86.76" y="0">区
        </tspan></text><text id="_320区-text" data-name="320区-text" class="cls-8"
        transform="translate(1228.9 2529.1)">000</text>
    <path class="cls-3"
        d="M2921.8,2477.9l.2,85.5h30v74h-30l-.2,186.1,28.2,6.5c135.9-27.1,235.9-49,282.9-79.1h0l-69-155.6-27.4,9.4-24.1-70,27.4-9.4-27.9-80.9"
        transform="translate(-563.1 -169.9)" />
    <path class="cls-3" d="M3376.2,2406.6" transform="translate(-563.1 -169.9)" />
    <path id="_302区" data-name="302区" class="cls-4"
        d="M953.7,1087.1l-90.9-36.9-10.3,28.2-69.6-25.3,10.3-28.2L626,958l-2.6,8.7a1348.89,1348.89,0,0,0-57.3,389H748.3v-29h74v29l85.5-.1"
        transform="translate(-563.1 -169.9)" /><text class="cls-5" transform="translate(131.9 1000.1)">302<tspan
            class="cls-6" x="86.76" y="0">区</tspan></text><text class="cls-7" transform="translate(131.9 1000.1)">302
        <tspan class="cls-6" x="86.76" y="0">区</tspan></text><text id="_302区-text" data-name="302区-text" class="cls-8"
        transform="translate(131.9 1080.1)">000</text><text class="cls-5" transform="translate(226.9 1945.1)">324<tspan
            class="cls-6" x="86.76" y="0">区</tspan></text><text class="cls-7" transform="translate(226.9 1945.1)">324
        <tspan class="cls-6" x="86.76" y="0">区</tspan></text><text id="_324区-text" data-name="324区-text" class="cls-8"
        transform="translate(226.9 2005.1)">000</text><text class="cls-5" transform="translate(401.9 2190.1)">323<tspan
            class="cls-6" x="86.76" y="0">区</tspan></text><text class="cls-7" transform="translate(401.9 2190.1)">323
        <tspan class="cls-6" x="86.76" y="0">区</tspan></text><text id="_323区-text" data-name="323区-text" class="cls-8"
        transform="translate(401.9 2250.1)">000</text>
    <path id="_304区" data-name="304区" class="cls-4"
        d="M1225,693.5,1169.9,615,1146,633.1l-44.7-59,23.9-18.1L1011.4,413.6l-11.6,9.7A1200.35,1200.35,0,0,0,797.1,640h0l148.2,99.9,16.2-24,61.3,41.4-16.2,24,76.3,55.8"
        transform="translate(-563.1 -169.9)" /><text class="cls-5" transform="translate(391.9 454.1)">304<tspan
            class="cls-6" x="86.76" y="0">区</tspan></text><text class="cls-7" transform="translate(391.9 454.1)">304
        <tspan class="cls-6" x="86.76" y="0">区</tspan></text><text id="_304区-text" data-name="304区-text" class="cls-8"
        transform="translate(391.9 517.1)">000</text><text class="cls-5" transform="translate(661.9 274.1)">305<tspan
            class="cls-6" x="86.76" y="0">区</tspan></text><text class="cls-7" transform="translate(661.9 274.1)">305
        <tspan class="cls-6" x="86.76" y="0">区</tspan></text><text id="_305区-text" data-name="305区-text" class="cls-8"
        transform="translate(661.9 334.1)">000</text><text class="cls-5" transform="translate(241.9 694.1)">303<tspan
            class="cls-6" x="86.76" y="0">区</tspan></text><text class="cls-7" transform="translate(241.9 694.1)">303
        <tspan class="cls-6" x="86.76" y="0">区</tspan></text><text id="_303区-text" data-name="303区-text" class="cls-8"
        transform="translate(241.9 754.1)">000</text><text class="cls-5" transform="translate(942.9 170.1)">306<tspan
            class="cls-6" x="86.76" y="0">区</tspan></text><text class="cls-7" transform="translate(942.9 170.1)">306
        <tspan class="cls-6" x="86.76" y="0">区</tspan></text><text id="_306区-text" data-name="306区-text" class="cls-8"
        transform="translate(942.9 230.1)">000</text><text class="cls-5" transform="translate(637.9 2379.1)">322<tspan
            class="cls-6" x="86.76" y="0">区</tspan></text><text class="cls-7" transform="translate(637.9 2379.1)">322
        <tspan class="cls-6" x="86.76" y="0">区</tspan></text><text id="_322区-text" data-name="322区-text" class="cls-8"
        transform="translate(637.9 2449.1)">000</text><text class="cls-5" transform="translate(942.9 2469.1)">321<tspan
            class="cls-6" x="86.76" y="0">区</tspan></text><text class="cls-7" transform="translate(942.9 2469.1)">321
        <tspan class="cls-6" x="86.76" y="0">区</tspan>
        </text>
        <text id="_321区-text" data-name="321区-text" class="cls-8"
        transform="translate(942.9 2529.1)">000</text>
        
    <path class="cls-3" d="M2770.5,524.9h0Z" transform="translate(-563.1 -169.9)" />
    <polygon class="cls-3" points="2337.6 432.3 2434.7 432.6 2446.7 348.6 2337.6 355 2337.6 432.3" />
    <path class="cls-3"
        d="M3369.8,682.8,3415,640l20,21,55-46-20-24,93-72h0a593.86,593.86,0,0,1,150.6,200.6L3728,751l-66,40.7L3635,760l-72,53,24.2,33"
        transform="translate(-563.1 -169.9)" />
    <path class="cls-3" d="M1828.4,602.2" transform="translate(-563.1 -169.9)" />
    <path class="cls-3" d="M2457.4,518.5" transform="translate(-563.1 -169.9)" />
    <path class="cls-3" d="M1985,602.2h0Z" transform="translate(-563.1 -169.9)" />
    <polygon id="包厢V35" class="cls-4" points="1421.9 357 1421.9 434.3 1265.3 432.3 1265.3 355 1421.9 357" />
    <polygon id="包厢V32" class="cls-4" points="1135.1 355 1025.7 355.3 1038 432.6 1132.9 431 1135.1 355" />
    <polygon id="包厢V28" class="cls-4" points="685.2 506.7 582.9 580.9 638.3 636.3 730.7 569.2 685.2 506.7" />
    <polygon id="包厢V26" class="cls-4" points="569.1 730.6 506.6 685.2 433.9 785.3 503.6 820.8 569.1 730.6" />
    <polygon id="包厢V22" class="cls-4" points="433.9 1145.3 347.3 1145.3 354.9 1028.4 432.2 1040.7 433.9 1145.3" />
    <polygon id="包厢V21" class="cls-4" points="347.3 1145.3 344.7 1333.1 432.2 1331.1 433.9 1145.3 347.3 1145.3" />
    <polygon id="包厢V20" class="cls-4" points="432.2 1331.1 432.2 1504.6 346.3 1504.6 344.7 1333.1 432.2 1331.1" />
    <polygon id="包厢V15" class="cls-4" points="570.8 1930.9 508.3 1976.3 581 2076.5 636.3 2021.2 570.8 1930.9" />
    <polygon id="包厢V13" class="cls-4" points="636.3 2021.2 728.4 2088.6 685.2 2152.7 581 2076.5 636.3 2021.2" />
    <polygon id="包厢V12" class="cls-4" points="728.4 2088.6 685.2 2152.7 785.4 2225.4 820.9 2155.7 728.4 2088.6" />
    <polygon id="包厢V10" class="cls-4" points="929.3 2191.5 905.4 2264.9 1025.7 2304 1040.6 2227.1 929.3 2191.5" />
    <polygon id="包厢V09" class="cls-4" points="1025.7 2304 1135 2308 1135 2228.5 1040.6 2227.1 1025.7 2304" />
    <polygon id="包厢V08" class="cls-4" points="1267.9 2227.1 1135 2228.5 1135 2308 1267.9 2304.4 1267.9 2227.1" />
    <rect id="包厢V07" class="cls-4" x="1267.9" y="2227.1" width="154" height="77.3" />
    <polygon id="包厢V06" class="cls-4" points="1421.9 2227.1 1581.1 2227.1 1578.3 2304.4 1421.9 2304.4 1421.9 2227.1" />
    <polygon id="包厢V05" class="cls-4" points="1737.7 2227.1 1734.9 2304.4 1578.3 2304.4 1581.1 2227.1 1737.7 2227.1" />
    <polygon id="包厢V03" class="cls-4" points="1737.7 2227.1 1891.5 2227.1 1891.5 2304.4 1734.9 2304.4 1737.7 2227.1" />
    <rect id="包厢V02" class="cls-4" x="1891.5" y="2227.1" width="156.6" height="77.3" />
    <line class="cls-3" x1="2689" y1="427.3" x2="2446.7" y2="348.6" />
    <path class="cls-4" d="M1087,968.5" transform="translate(-563.1 -169.9)" />
    <line class="cls-3" x1="506.6" y1="685.2" x2="582.9" y2="580.9" />
    <line class="cls-4" x1="394.4" y1="905.4" x2="354.9" y2="1028.4" />
    <polyline class="cls-4" points="432.2 1504.6 432.2 1618.7 354.9 1630.9 346.3 1504.6" />
    <path class="cls-4" d="M909.4,1674.5" transform="translate(-563.1 -169.9)" />
    <path class="cls-4" d="M997,2044l74.4,102.2Z" transform="translate(-563.1 -169.9)" />
    <path class="cls-3" d="M1066.7,2008.5,997,2044l-40.3-122.8,71.65-30.82" transform="translate(-563.1 -169.9)" />
    <line class="cls-3" x1="354.9" y1="1630.9" x2="393.6" y2="1751.3" />
    <path class="cls-3" d="M3376.2,2406.6" transform="translate(-563.1 -169.9)" />
    <path class="cls-3" d="M3348.36,2326.9" transform="translate(-563.1 -169.9)" />
    <path class="cls-3" d="M3396.59,2380" transform="translate(-563.1 -169.9)" />
    <polygon class="cls-3" points="2337.6 2227.1 2432.3 2227.1 2444.3 2304.4 2337.6 2304.4 2337.6 2227.1" />
    <path class="cls-3" d="M3547.6,2122.3l-92.9,124.1" transform="translate(-563.1 -169.9)" />
    <line class="cls-3" x1="3040.4" y1="1331.1" x2="3040.4" y2="1040.6" />
</svg>